<?xml version="1.0" encoding="UTF-8"?>
<!DOCTYPE svg PUBLIC "-//W3C//DTD SVG 1.1//EN" "http://www.w3.org/Graphics/SVG/1.1/DTD/svg11.dtd">
<svg xmlns="http://www.w3.org/2000/svg" version="1.1" width="400px" height="400px" style="shape-rendering:geometricPrecision; text-rendering:geometricPrecision; image-rendering:optimizeQuality; fill-rule:evenodd; clip-rule:evenodd" xmlns:xlink="http://www.w3.org/1999/xlink">
<g><path style="opacity:1" fill="#262d3d" d="M -0.5,-0.5 C 74.1667,-0.5 148.833,-0.5 223.5,-0.5C 223.5,4.83333 223.5,10.1667 223.5,15.5C 226.596,14.9066 228.929,15.9066 230.5,18.5C 232.783,19.3209 235.116,19.9876 237.5,20.5C 238.713,20.7472 239.38,21.4138 239.5,22.5C 234.92,22.8866 230.586,22.0532 226.5,20C 204.075,18.7854 181.741,19.6187 159.5,22.5C 156.749,23.5002 154.082,24.6668 151.5,26C 146.426,26.4257 141.426,27.259 136.5,28.5C 135.245,30.7802 133.245,31.9468 130.5,32C 131.167,32.3333 131.833,32.6667 132.5,33C 128.751,34.9409 124.751,36.2743 120.5,37C 116.555,40.8064 111.888,43.3064 106.5,44.5C 105.614,45.325 105.281,46.325 105.5,47.5C 102.167,47.5 98.8333,47.5 95.5,47.5C 95.5,49.8333 95.5,52.1667 95.5,54.5C 95.1667,55.5 94.5,56.1667 93.5,56.5C 88.6663,57.2502 83.9997,58.5836 79.5,60.5C 79.3505,59.448 79.5172,58.448 80,57.5C 86.0047,54.5756 85.838,52.5756 79.5,51.5C 79.5,50.1667 79.5,48.8333 79.5,47.5C 68.8333,47.5 58.1667,47.5 47.5,47.5C 47.5,52.8333 47.5,58.1667 47.5,63.5C 36.8333,63.5 26.1667,63.5 15.5,63.5C 15.5,68.8333 15.5,74.1667 15.5,79.5C 20.8333,79.5 26.1667,79.5 31.5,79.5C 31.5,84.8333 31.5,90.1667 31.5,95.5C 20.8333,95.5 10.1667,95.5 -0.5,95.5C -0.5,63.5 -0.5,31.5 -0.5,-0.5 Z"/></g>
<g><path style="opacity:1" fill="#262d3d" d="M 223.5,-0.5 C 282.167,-0.5 340.833,-0.5 399.5,-0.5C 399.5,15.5 399.5,31.5 399.5,47.5C 394.167,47.5 388.833,47.5 383.5,47.5C 383.5,42.1667 383.5,36.8333 383.5,31.5C 378.167,31.5 372.833,31.5 367.5,31.5C 367.5,42.1667 367.5,52.8333 367.5,63.5C 362.167,63.5 356.833,63.5 351.5,63.5C 351.5,68.8333 351.5,74.1667 351.5,79.5C 356.833,79.5 362.167,79.5 367.5,79.5C 367.5,90.1667 367.5,100.833 367.5,111.5C 364.167,111.5 360.833,111.5 357.5,111.5C 357.427,106.735 359.594,103.401 364,101.5C 365.128,99.6547 365.628,97.6547 365.5,95.5C 362.167,95.5 358.833,95.5 355.5,95.5C 356.244,98.9496 354.91,100.616 351.5,100.5C 351.5,98.8333 351.5,97.1667 351.5,95.5C 349.167,95.5 346.833,95.5 344.5,95.5C 344.557,93.1155 344.223,90.7822 343.5,88.5C 341.438,86.6397 340.105,84.3064 339.5,81.5C 338.833,81.8333 338.167,82.1667 337.5,82.5C 336.049,80.4411 334.049,79.4411 331.5,79.5C 331.996,73.2675 329.663,68.4342 324.5,65C 324.833,64.6667 325.167,64.3333 325.5,64C 323.527,63.5045 321.527,63.3379 319.5,63.5C 319.813,60.7531 319.48,58.0865 318.5,55.5C 317.522,55.9767 316.689,56.6433 316,57.5C 313.505,54.1715 310.671,51.1715 307.5,48.5C 304.85,48.6719 302.184,48.0053 299.5,46.5C 298.872,44.7419 297.872,43.2419 296.5,42C 292.106,41.6972 287.773,41.0305 283.5,40C 279.421,33.9046 273.754,30.9046 266.5,31C 259.124,23.5913 250.124,20.758 239.5,22.5C 239.38,21.4138 238.713,20.7472 237.5,20.5C 235.116,19.9876 232.783,19.3209 230.5,18.5C 228.929,15.9066 226.596,14.9066 223.5,15.5C 223.5,10.1667 223.5,4.83333 223.5,-0.5 Z"/></g>
<g><path style="opacity:1" fill="#262d3d" d="M 44.5,103.5 C 43.1309,104.968 41.9643,106.635 41,108.5C 41.2197,114.47 39.0531,119.637 34.5,124C 34.9574,124.414 35.2907,124.914 35.5,125.5C 34.0202,127.84 32.6868,130.174 31.5,132.5C 31.5,125.5 31.5,118.5 31.5,111.5C 32.5,111.5 33.5,111.5 34.5,111.5C 34.5,112.5 34.5,113.5 34.5,114.5C 35.8221,114.67 36.9887,114.337 38,113.5C 37.0448,107.84 39.2115,104.507 44.5,103.5 Z"/></g>
<g><path style="opacity:1" fill="#262d3d" d="M 79.5,60.5 C 79.5,62.8333 79.5,65.1667 79.5,67.5C 78.5041,67.5858 77.6708,67.2524 77,66.5C 75.766,68.7342 73.9326,70.2342 71.5,71C 70.6476,73.3617 69.1476,75.1951 67,76.5C 66.5172,77.448 66.3505,78.448 66.5,79.5C 65.5,79.5 64.5,79.5 63.5,79.5C 63.5972,83.6917 61.7639,85.0251 58,83.5C 56.7159,86.2819 54.8825,88.6153 52.5,90.5C 51.6906,92.0709 51.3573,93.7376 51.5,95.5C 50.1667,95.5 48.8333,95.5 47.5,95.5C 47.5,98.1667 47.5,100.833 47.5,103.5C 46.5,103.5 45.5,103.5 44.5,103.5C 39.2115,104.507 37.0448,107.84 38,113.5C 36.9887,114.337 35.8221,114.67 34.5,114.5C 34.5,113.5 34.5,112.5 34.5,111.5C 33.5,111.5 32.5,111.5 31.5,111.5C 31.5,118.5 31.5,125.5 31.5,132.5C 31.6567,133.873 31.49,135.207 31,136.5C 27.4283,138.381 25.4283,141.381 25,145.5C 25.2065,154.43 23.2065,162.763 19,170.5C 18.2376,193.548 18.7376,216.548 20.5,239.5C 21.5,239.5 22.5,239.5 23.5,239.5C 23.3669,244.973 24.0335,250.307 25.5,255.5C 27.1667,255.5 28.8333,255.5 30.5,255.5C 31.3382,255.842 31.6716,256.508 31.5,257.5C 31.5,262.167 31.5,266.833 31.5,271.5C 32.8333,271.5 34.1667,271.5 35.5,271.5C 35.1866,274.247 35.52,276.914 36.5,279.5C 39.1426,281.636 40.8092,284.303 41.5,287.5C 38.3936,292.386 36.3936,297.72 35.5,303.5C 34.1667,303.5 32.8333,303.5 31.5,303.5C 31.5,319.5 31.5,335.5 31.5,351.5C 26.1667,351.5 20.8333,351.5 15.5,351.5C 15.5,356.833 15.5,362.167 15.5,367.5C 10.1667,367.5 4.83333,367.5 -0.5,367.5C -0.5,276.833 -0.5,186.167 -0.5,95.5C 10.1667,95.5 20.8333,95.5 31.5,95.5C 31.5,90.1667 31.5,84.8333 31.5,79.5C 26.1667,79.5 20.8333,79.5 15.5,79.5C 15.5,74.1667 15.5,68.8333 15.5,63.5C 26.1667,63.5 36.8333,63.5 47.5,63.5C 47.5,58.1667 47.5,52.8333 47.5,47.5C 58.1667,47.5 68.8333,47.5 79.5,47.5C 79.5,48.8333 79.5,50.1667 79.5,51.5C 85.838,52.5756 86.0047,54.5756 80,57.5C 79.5172,58.448 79.3505,59.448 79.5,60.5 Z"/></g>
<g><path style="opacity:1" fill="#262d3d" d="M 399.5,47.5 C 399.5,132.833 399.5,218.167 399.5,303.5C 388.833,303.5 378.167,303.5 367.5,303.5C 367.5,314.167 367.5,324.833 367.5,335.5C 362.167,335.5 356.833,335.5 351.5,335.5C 351.5,340.833 351.5,346.167 351.5,351.5C 362.167,351.5 372.833,351.5 383.5,351.5C 383.5,340.833 383.5,330.167 383.5,319.5C 388.833,319.5 394.167,319.5 399.5,319.5C 399.5,346.167 399.5,372.833 399.5,399.5C 266.167,399.5 132.833,399.5 -0.5,399.5C -0.5,388.833 -0.5,378.167 -0.5,367.5C 4.83333,367.5 10.1667,367.5 15.5,367.5C 15.5,362.167 15.5,356.833 15.5,351.5C 20.8333,351.5 26.1667,351.5 31.5,351.5C 31.5,335.5 31.5,319.5 31.5,303.5C 32.8333,303.5 34.1667,303.5 35.5,303.5C 36.3936,297.72 38.3936,292.386 41.5,287.5C 42.2663,289.684 42.9329,292.018 43.5,294.5C 44.6888,295.429 46.0222,295.762 47.5,295.5C 47.5,298.167 47.5,300.833 47.5,303.5C 49.8333,303.5 52.1667,303.5 54.5,303.5C 54.4726,309.191 56.4726,314.025 60.5,318C 61.448,318.483 62.448,318.649 63.5,318.5C 63.2475,321.32 63.7475,323.986 65,326.5C 68.6212,328.131 71.6212,330.465 74,333.5C 74.3333,333.167 74.6667,332.833 75,332.5C 75.4828,333.448 75.6495,334.448 75.5,335.5C 76.8333,335.5 78.1667,335.5 79.5,335.5C 78.8144,339.287 79.8144,342.454 82.5,345C 85.1667,347 87.8333,349 90.5,351C 93.8168,351.498 97.1501,351.665 100.5,351.5C 101.249,352.531 101.915,353.698 102.5,355C 107.023,355.743 111.356,357.076 115.5,359C 117.912,361.071 119.912,363.404 121.5,366C 125.395,367.266 129.395,367.766 133.5,367.5C 133.241,370.48 134.574,372.313 137.5,373C 144.795,374.28 152.128,375.28 159.5,376C 162.255,377.171 164.921,378.504 167.5,380C 191.533,380.308 215.533,380.475 239.5,380.5C 239.5,381.5 239.5,382.5 239.5,383.5C 246.144,384.581 247.311,383.247 243,379.5C 242.383,378.551 242.549,377.718 243.5,377C 249.342,375.214 255.342,374.214 261.5,374C 264.362,371.977 267.362,370.144 270.5,368.5C 271.386,367.675 271.719,366.675 271.5,365.5C 276.683,365.592 280.016,363.258 281.5,358.5C 285.212,357.972 288.879,357.138 292.5,356C 293.743,354.846 294.743,353.512 295.5,352C 297.167,351.667 298.833,351.333 300.5,351C 300.167,350.667 299.833,350.333 299.5,350C 302.218,348.934 304.551,347.267 306.5,345C 307.766,344.691 308.933,344.191 310,343.5C 310.333,344.167 310.667,344.833 311,345.5C 313.295,342.203 315.962,339.203 319,336.5C 319.494,334.866 319.66,333.199 319.5,331.5C 321.924,331.808 324.257,331.474 326.5,330.5C 327.501,327.827 329.001,325.493 331,323.5C 332.11,321.963 333.61,321.297 335.5,321.5C 335.343,320.127 335.51,318.793 336,317.5C 339.799,313.902 341.966,309.569 342.5,304.5C 343.167,304.167 343.833,303.833 344.5,303.5C 346.833,303.5 349.167,303.5 351.5,303.5C 351.5,300.5 351.5,297.5 351.5,294.5C 352.833,294.5 354.167,294.5 355.5,294.5C 355.337,292.143 355.503,289.81 356,287.5C 359.229,284.419 362.729,280.752 366.5,276.5C 366.013,275.554 365.68,274.554 365.5,273.5C 367.248,269.007 367.915,264.34 367.5,259.5C 367.5,259.167 367.5,258.833 367.5,258.5C 369.113,258.056 370.28,257.056 371,255.5C 371.706,251.675 372.872,248.008 374.5,244.5C 374.069,243.707 373.735,242.873 373.5,242C 374.861,240.073 375.694,237.906 376,235.5C 376.663,228.699 377.83,222.032 379.5,215.5C 378.807,200.174 378.307,184.841 378,169.5C 377.252,167.668 376.252,166.001 375,164.5C 374.955,159.016 374.122,153.683 372.5,148.5C 373.951,144.93 372.618,143.263 368.5,143.5C 367.566,142.432 367.232,141.099 367.5,139.5C 366.478,130.032 366.478,120.699 367.5,111.5C 367.5,100.833 367.5,90.1667 367.5,79.5C 362.167,79.5 356.833,79.5 351.5,79.5C 351.5,74.1667 351.5,68.8333 351.5,63.5C 356.833,63.5 362.167,63.5 367.5,63.5C 367.5,52.8333 367.5,42.1667 367.5,31.5C 372.833,31.5 378.167,31.5 383.5,31.5C 383.5,36.8333 383.5,42.1667 383.5,47.5C 388.833,47.5 394.167,47.5 399.5,47.5 Z"/></g>
<g><path style="opacity:1" fill="#262d3d" d="M 399.5,303.5 C 399.5,308.833 399.5,314.167 399.5,319.5C 394.167,319.5 388.833,319.5 383.5,319.5C 383.5,330.167 383.5,340.833 383.5,351.5C 372.833,351.5 362.167,351.5 351.5,351.5C 351.5,346.167 351.5,340.833 351.5,335.5C 356.833,335.5 362.167,335.5 367.5,335.5C 367.5,324.833 367.5,314.167 367.5,303.5C 378.167,303.5 388.833,303.5 399.5,303.5 Z"/></g>
<g><path style="opacity:1" fill="#000" d="M 234.5,105.5 C 233.041,105.567 231.708,105.234 230.5,104.5C 225.527,103.372 220.527,102.372 215.5,101.5C 203.122,100.03 190.789,100.363 178.5,102.5C 180.447,101.85 182.113,100.683 183.5,99C 196.807,97.3403 210.141,97.1736 223.5,98.5C 223.5,99.5 223.5,100.5 223.5,101.5C 227.308,101.163 230.974,101.663 234.5,103C 233.402,103.77 233.402,104.603 234.5,105.5 Z"/></g>
<g><path style="opacity:1" fill="#000" d="M 331.5,79.5 C 335.632,85.0478 339.965,90.3811 344.5,95.5C 353.754,109.341 361.42,124.008 367.5,139.5C 367.232,141.099 367.566,142.432 368.5,143.5C 376.99,173.042 378.824,203.042 374,233.5C 372.612,242.054 370.445,250.388 367.5,258.5C 367.5,258.833 367.5,259.167 367.5,259.5C 361.402,275.031 353.735,289.698 344.5,303.5C 343.833,303.833 343.167,304.167 342.5,304.5C 335.545,314.058 327.878,323.058 319.5,331.5C 307.9,342.115 295.234,351.115 281.5,358.5C 230.604,383.422 178.937,384.922 126.5,363C 111.037,356.031 97.037,346.865 84.5,335.5C 73.4948,325.689 63.4948,315.022 54.5,303.5C 45.2426,288.985 37.5759,273.652 31.5,257.5C 31.6716,256.508 31.3382,255.842 30.5,255.5C 28.1467,244.723 25.8134,234.057 23.5,223.5C 21.5193,202.014 22.5193,180.681 26.5,159.5C 32.1282,137.012 41.2948,116.012 54,96.5C 62.0368,86.4267 70.5368,76.76 79.5,67.5C 84.7461,64.5892 89.4127,60.9225 93.5,56.5C 94.5,56.1667 95.1667,55.5 95.5,54.5C 150.745,17.2723 209.412,11.1056 271.5,36C 294.224,46.9122 314.224,61.4122 331.5,79.5 Z"/></g>
<g><path style="opacity:1" fill="#000" d="M 286.5,252.5 C 291.696,253.565 296.696,255.232 301.5,257.5C 297.849,261.652 294.016,265.652 290,269.5C 288,272.5 288,275.5 290,278.5C 297.015,285.348 303.848,292.348 310.5,299.5C 307.464,303.725 303.797,306.892 299.5,309C 292.833,302.333 286.167,295.667 279.5,289C 276.5,287 273.5,287 270.5,289C 266.652,293.016 262.652,296.849 258.5,300.5C 256.298,295.225 254.298,289.892 252.5,284.5C 252.5,283.833 252.5,283.167 252.5,282.5C 252.771,280.57 253.771,279.236 255.5,278.5C 259.844,277.657 263.177,275.324 265.5,271.5C 273.149,265.849 280.149,259.516 286.5,252.5 Z"/></g>
<g><path style="opacity:1" fill="#f1f0d0" d="M 239.5,22.5 C 250.124,20.758 259.124,23.5913 266.5,31C 273.754,30.9046 279.421,33.9046 283.5,40C 287.773,41.0305 292.106,41.6972 296.5,42C 297.872,43.2419 298.872,44.7419 299.5,46.5C 302.184,48.0053 304.85,48.6719 307.5,48.5C 310.671,51.1715 313.505,54.1715 316,57.5C 316.689,56.6433 317.522,55.9767 318.5,55.5C 319.48,58.0865 319.813,60.7531 319.5,63.5C 321.527,63.3379 323.527,63.5045 325.5,64C 325.167,64.3333 324.833,64.6667 324.5,65C 329.663,68.4342 331.996,73.2675 331.5,79.5C 314.224,61.4122 294.224,46.9122 271.5,36C 209.412,11.1056 150.745,17.2723 95.5,54.5C 95.5,52.1667 95.5,49.8333 95.5,47.5C 98.8333,47.5 102.167,47.5 105.5,47.5C 105.281,46.325 105.614,45.325 106.5,44.5C 111.888,43.3064 116.555,40.8064 120.5,37C 124.751,36.2743 128.751,34.9409 132.5,33C 131.833,32.6667 131.167,32.3333 130.5,32C 133.245,31.9468 135.245,30.7802 136.5,28.5C 141.426,27.259 146.426,26.4257 151.5,26C 154.082,24.6668 156.749,23.5002 159.5,22.5C 181.741,19.6187 204.075,18.7854 226.5,20C 230.586,22.0532 234.92,22.8866 239.5,22.5 Z"/></g>
<g><path style="opacity:1" fill="#efedd1" d="M 93.5,56.5 C 89.4127,60.9225 84.7461,64.5892 79.5,67.5C 79.5,65.1667 79.5,62.8333 79.5,60.5C 83.9997,58.5836 88.6663,57.2502 93.5,56.5 Z"/></g>
<g><path style="opacity:1" fill="#d1daa4" d="M 132.5,79.5 C 130.833,79.5 129.167,79.5 127.5,79.5C 129.206,71.5842 130.872,71.5842 132.5,79.5 Z"/></g>
<g><path style="opacity:1" fill="#e5d36f" d="M 127.5,79.5 C 129.167,79.5 130.833,79.5 132.5,79.5C 132.445,82.6145 131.112,84.9478 128.5,86.5C 127.89,85.609 127.557,84.609 127.5,83.5C 127.5,82.1667 127.5,80.8333 127.5,79.5 Z"/></g>
<g><path style="opacity:1" fill="#c0c0c0" d="M 127.5,79.5 C 127.5,80.8333 127.5,82.1667 127.5,83.5C 121.048,82.685 121.048,81.3516 127.5,79.5 Z"/></g>
<g><path style="opacity:1" fill="#e2d5b4" d="M 132.5,79.5 C 134.606,80.7829 136.94,81.6162 139.5,82C 134.716,83.1251 131.549,85.9584 130,90.5C 129.59,89.0993 129.09,87.766 128.5,86.5C 131.112,84.9478 132.445,82.6145 132.5,79.5 Z"/></g>
<g><path style="opacity:1" fill="#f0eecb" d="M 331.5,79.5 C 334.049,79.4411 336.049,80.4411 337.5,82.5C 338.167,82.1667 338.833,81.8333 339.5,81.5C 340.105,84.3064 341.438,86.6397 343.5,88.5C 344.223,90.7822 344.557,93.1155 344.5,95.5C 339.965,90.3811 335.632,85.0478 331.5,79.5 Z"/></g>
<g><path style="opacity:1" fill="#9b9b9b" d="M 261.5,92.5 C 267.963,94.2621 267.963,95.5954 261.5,96.5C 261.5,95.1667 261.5,93.8333 261.5,92.5 Z"/></g>
<g><path style="opacity:1" fill="#efd985" d="M 215.5,101.5 C 213.5,102.167 211.5,102.833 209.5,103.5C 201.543,102.851 193.543,103.018 185.5,104C 181.726,104.568 178.393,105.735 175.5,107.5C 170.385,109.25 165.051,110.584 159.5,111.5C 159.5,113.167 159.5,114.833 159.5,116.5C 153.315,118.895 146.982,120.895 140.5,122.5C 143.884,118.631 147.884,115.464 152.5,113C 160.884,108.599 169.551,105.099 178.5,102.5C 190.789,100.363 203.122,100.03 215.5,101.5 Z"/></g>
<g><path style="opacity:1" fill="#ce7f52" d="M 215.5,101.5 C 220.527,102.372 225.527,103.372 230.5,104.5C 228.653,105.573 226.653,105.573 224.5,104.5C 223.833,104.5 223.5,104.833 223.5,105.5C 219.846,105.058 216.179,104.724 212.5,104.5C 211.791,103.596 210.791,103.263 209.5,103.5C 211.5,102.833 213.5,102.167 215.5,101.5 Z"/></g>
<g><path style="opacity:1" fill="#9d4a21" d="M 224.5,104.5 C 226.653,105.573 228.653,105.573 230.5,104.5C 231.708,105.234 233.041,105.567 234.5,105.5C 236.516,106.588 238.683,107.588 241,108.5C 242.31,109.13 243.144,110.13 243.5,111.5C 239.48,109.407 235.147,108.074 230.5,107.5C 227.784,107.614 225.784,106.614 224.5,104.5 Z"/></g>
<g><path style="opacity:1" fill="#fcdc56" d="M 165.5,132.5 C 163.735,131.539 161.735,131.205 159.5,131.5C 164.442,129.004 169.775,127.67 175.5,127.5C 175.5,125.833 175.5,124.167 175.5,122.5C 172.552,122.223 169.719,122.556 167,123.5C 166.683,121.699 166.016,121.366 165,122.5C 163.333,119.833 161.667,119.833 160,122.5C 159.751,121.376 159.251,120.376 158.5,119.5C 153.194,121.353 147.861,122.853 142.5,124C 141.529,125.481 140.196,126.315 138.5,126.5C 139.167,125.167 139.833,123.833 140.5,122.5C 146.982,120.895 153.315,118.895 159.5,116.5C 159.5,114.833 159.5,113.167 159.5,111.5C 165.051,110.584 170.385,109.25 175.5,107.5C 181.494,106.503 187.494,105.503 193.5,104.5C 197.411,104.297 201.078,105.13 204.5,107C 203.601,108.236 202.434,109.07 201,109.5C 199.584,108.427 198.25,108.427 197,109.5C 196,108.833 195,108.167 194,107.5C 190.675,108.944 187.175,109.944 183.5,110.5C 192.803,111.51 192.803,112.51 183.5,113.5C 183.5,114.833 183.5,116.167 183.5,117.5C 185.927,117.523 188.26,118.023 190.5,119C 189.552,119.483 188.552,119.649 187.5,119.5C 186.833,123.5 186.167,123.5 185.5,119.5C 184.167,119.5 182.833,119.5 181.5,119.5C 181.838,121.854 182.338,124.187 183,126.5C 184.666,125.66 184.833,126.16 183.5,128C 188.721,128.542 188.721,129.376 183.5,130.5C 184.5,131.167 185.5,131.833 186.5,132.5C 183.06,134.223 179.394,134.89 175.5,134.5C 175.66,136.199 175.494,137.866 175,139.5C 173.644,138.62 172.144,138.286 170.5,138.5C 170.167,136.5 169.833,134.5 169.5,132.5C 168.167,132.5 166.833,132.5 165.5,132.5 Z"/></g>
<g><path style="opacity:1" fill="#f6f5c6" d="M 344.5,95.5 C 346.833,95.5 349.167,95.5 351.5,95.5C 351.5,97.1667 351.5,98.8333 351.5,100.5C 354.91,100.616 356.244,98.9496 355.5,95.5C 358.833,95.5 362.167,95.5 365.5,95.5C 365.628,97.6547 365.128,99.6547 364,101.5C 359.594,103.401 357.427,106.735 357.5,111.5C 360.833,111.5 364.167,111.5 367.5,111.5C 366.478,120.699 366.478,130.032 367.5,139.5C 361.42,124.008 353.754,109.341 344.5,95.5 Z"/></g>
<g><path style="opacity:1" fill="#e74b13" d="M 230.5,107.5 C 235.147,108.074 239.48,109.407 243.5,111.5C 243.833,111.5 244.167,111.5 244.5,111.5C 246.211,116.493 249.877,118.826 255.5,118.5C 255.5,118.833 255.5,119.167 255.5,119.5C 258.572,121.56 261.572,123.893 264.5,126.5C 265.689,127.429 267.022,127.762 268.5,127.5C 269.5,127.5 270.5,127.5 271.5,127.5C 271.5,128.5 271.5,129.5 271.5,130.5C 271.5,131.167 271.5,131.833 271.5,132.5C 269.712,132.785 268.045,132.452 266.5,131.5C 263.032,125.571 259.032,125.071 254.5,130C 257.065,134.724 259.732,139.391 262.5,144C 261.62,145.356 261.286,146.856 261.5,148.5C 260.833,148.5 260.167,148.5 259.5,148.5C 258.677,145.129 257.511,141.796 256,138.5C 252.353,134.55 249.187,130.216 246.5,125.5C 244.488,123.659 242.155,122.659 239.5,122.5C 238.637,121.06 238.637,119.726 239.5,118.5C 237.833,117.333 236.167,116.167 234.5,115C 235.337,113.989 235.67,112.822 235.5,111.5C 233.801,111.66 232.134,111.494 230.5,111C 231.171,110.014 231.171,108.847 230.5,107.5 Z"/></g>
<g><path style="opacity:1" fill="#ef8326" d="M 224.5,104.5 C 225.784,106.614 227.784,107.614 230.5,107.5C 231.171,108.847 231.171,110.014 230.5,111C 232.134,111.494 233.801,111.66 235.5,111.5C 235.67,112.822 235.337,113.989 234.5,115C 236.167,116.167 237.833,117.333 239.5,118.5C 238.637,119.726 238.637,121.06 239.5,122.5C 237.712,122.785 236.045,122.452 234.5,121.5C 235.376,120.749 236.376,120.249 237.5,120C 235.5,118.667 233.5,117.333 231.5,116C 232.833,115 232.833,114 231.5,113C 228.833,112.667 226.167,112.333 223.5,112C 228.07,111.45 228.403,110.283 224.5,108.5C 223.873,107.583 223.539,106.583 223.5,105.5C 223.5,104.833 223.833,104.5 224.5,104.5 Z"/></g>
<g><path style="opacity:1" fill="#b63e19" d="M 244.5,111.5 C 245.5,111.5 246.5,111.5 247.5,111.5C 248.476,112.815 249.476,114.148 250.5,115.5C 252.759,115.784 254.426,116.784 255.5,118.5C 249.877,118.826 246.211,116.493 244.5,111.5 Z"/></g>
<g><path style="opacity:1" fill="#772e21" d="M 247.5,111.5 C 253.927,113.452 259.26,117.119 263.5,122.5C 261.022,121.117 258.355,120.117 255.5,119.5C 255.5,119.167 255.5,118.833 255.5,118.5C 254.426,116.784 252.759,115.784 250.5,115.5C 249.476,114.148 248.476,112.815 247.5,111.5 Z"/></g>
<g><path style="opacity:1" fill="#a9422a" d="M 255.5,119.5 C 258.355,120.117 261.022,121.117 263.5,122.5C 266.167,123.167 267.833,124.833 268.5,127.5C 267.022,127.762 265.689,127.429 264.5,126.5C 261.572,123.893 258.572,121.56 255.5,119.5 Z"/></g>
<g><path style="opacity:1" fill="#e8e19d" d="M 140.5,122.5 C 139.833,123.833 139.167,125.167 138.5,126.5C 138.158,127.338 137.492,127.672 136.5,127.5C 132.41,131.95 128.243,136.283 124,140.5C 123.517,141.448 123.351,142.448 123.5,143.5C 122.5,143.5 121.5,143.5 120.5,143.5C 123.766,138.067 127.599,133.067 132,128.5C 134.731,126.255 137.564,124.255 140.5,122.5 Z"/></g>
<g><path style="opacity:1" fill="#fce756" d="M 159.5,131.5 C 159.5,134.5 159.5,137.5 159.5,140.5C 159.892,143.722 159.392,146.722 158,149.5C 156.855,148.364 155.688,147.364 154.5,146.5C 155.478,146.189 156.145,145.522 156.5,144.5C 150.872,143.505 145.206,143.171 139.5,143.5C 139.66,141.801 139.494,140.134 139,138.5C 137.43,139.358 135.763,140.025 134,140.5C 132.268,140.266 131.434,139.266 131.5,137.5C 132.269,134.966 133.769,132.966 136,131.5C 136.49,130.207 136.657,128.873 136.5,127.5C 137.492,127.672 138.158,127.338 138.5,126.5C 140.196,126.315 141.529,125.481 142.5,124C 147.861,122.853 153.194,121.353 158.5,119.5C 159.251,120.376 159.751,121.376 160,122.5C 161.667,119.833 163.333,119.833 165,122.5C 166.016,121.366 166.683,121.699 167,123.5C 169.719,122.556 172.552,122.223 175.5,122.5C 175.5,124.167 175.5,125.833 175.5,127.5C 169.775,127.67 164.442,129.004 159.5,131.5 Z"/></g>
<g><path style="opacity:1" fill="#f9ba3e" d="M 212.5,104.5 C 216.179,104.724 219.846,105.058 223.5,105.5C 223.539,106.583 223.873,107.583 224.5,108.5C 228.403,110.283 228.07,111.45 223.5,112C 226.167,112.333 228.833,112.667 231.5,113C 232.833,114 232.833,115 231.5,116C 233.5,117.333 235.5,118.667 237.5,120C 236.376,120.249 235.376,120.749 234.5,121.5C 236.045,122.452 237.712,122.785 239.5,122.5C 241.294,123.857 243.294,125.023 245.5,126C 244.003,127.871 242.003,128.871 239.5,129C 241.778,129.986 244.111,130.82 246.5,131.5C 249.157,134.147 251.323,137.147 253,140.5C 253.317,138.699 253.984,138.366 255,139.5C 255.498,142.482 255.665,145.482 255.5,148.5C 241.444,148.712 227.444,148.712 213.5,148.5C 216.488,146.86 219.821,146.026 223.5,146C 212.912,145.476 212.912,144.643 223.5,143.5C 222.994,139.993 223.66,136.826 225.5,134C 222.894,133.55 221.561,132.05 221.5,129.5C 225.554,129.79 226.054,129.123 223,127.5C 220.919,128.333 218.752,128.333 216.5,127.5C 216.489,125.453 216.156,123.453 215.5,121.5C 215.818,120.353 216.484,119.519 217.5,119C 216.584,118.722 215.918,118.222 215.5,117.5C 217.199,117.66 218.866,117.494 220.5,117C 218.616,116.784 216.949,116.117 215.5,115C 216.833,114.333 216.833,113.667 215.5,113C 222.167,112.333 222.167,111.667 215.5,111C 219.5,110.333 219.5,109.667 215.5,109C 216.167,108.667 216.833,108.333 217.5,108C 215.817,106.714 214.151,105.547 212.5,104.5 Z"/></g>
<g><path style="opacity:1" fill="#fbd551" d="M 209.5,103.5 C 210.791,103.263 211.791,103.596 212.5,104.5C 214.151,105.547 215.817,106.714 217.5,108C 216.833,108.333 216.167,108.667 215.5,109C 219.5,109.667 219.5,110.333 215.5,111C 222.167,111.667 222.167,112.333 215.5,113C 216.833,113.667 216.833,114.333 215.5,115C 216.949,116.117 218.616,116.784 220.5,117C 218.866,117.494 217.199,117.66 215.5,117.5C 214.849,118.091 214.182,118.757 213.5,119.5C 212.833,122.167 212.167,124.833 211.5,127.5C 207.583,127.691 203.583,127.857 199.5,128C 198.692,128.308 198.025,128.808 197.5,129.5C 198.912,130.806 200.579,131.64 202.5,132C 199.332,132.582 198.999,133.582 201.5,135C 199.834,137.48 199.001,140.313 199,143.5C 194.335,144.739 194.502,145.572 199.5,146C 196.734,146.691 196.067,148.191 197.5,150.5C 196.975,151.192 196.308,151.692 195.5,152C 196.833,152.333 198.167,152.667 199.5,153C 196.833,154 196.833,155 199.5,156C 196.774,156.182 194.107,156.682 191.5,157.5C 194.642,158.167 197.642,158.834 200.5,159.5C 194.824,159.334 189.157,159.501 183.5,160C 184.056,160.383 184.389,160.883 184.5,161.5C 183.833,161.5 183.5,161.833 183.5,162.5C 182.957,162.56 182.624,162.893 182.5,163.5C 190.807,164.498 199.14,164.831 207.5,164.5C 211.839,166.487 216.172,167.987 220.5,169C 218.694,169.81 217.194,170.976 216,172.5C 213.721,172.45 211.388,172.117 209,171.5C 207.009,176.199 203.509,178.533 198.5,178.5C 198.5,177.5 198.5,176.5 198.5,175.5C 197.167,175.5 195.833,175.5 194.5,175.5C 194.323,177.981 195.323,179.814 197.5,181C 197.002,182.158 196.169,182.991 195,183.5C 192.679,183.698 190.512,184.198 188.5,185C 187.748,185.671 187.414,186.504 187.5,187.5C 181.5,187.5 175.5,187.5 169.5,187.5C 169.5,188.5 169.5,189.5 169.5,190.5C 174.401,190.395 179.401,190.728 184.5,191.5C 184.389,192.117 184.056,192.617 183.5,193C 181.5,193.167 179.5,193.333 177.5,193.5C 166.183,192.643 154.85,192.31 143.5,192.5C 143.5,189.5 143.5,186.5 143.5,183.5C 146.788,183.073 149.788,183.74 152.5,185.5C 154.51,183.829 156.843,183.162 159.5,183.5C 159.281,184.675 159.614,185.675 160.5,186.5C 163.406,185.913 165.072,184.246 165.5,181.5C 163.5,181.5 161.5,181.5 159.5,181.5C 159.5,179.5 159.5,177.5 159.5,175.5C 161.5,175.5 163.5,175.5 165.5,175.5C 165.928,168.388 165.928,161.554 165.5,155C 167.155,153.556 167.822,151.722 167.5,149.5C 168.552,149.649 169.552,149.483 170.5,149C 164.771,148.328 164.437,147.328 169.5,146C 167.099,145.195 167.266,144.362 170,143.5C 170.483,142.552 170.649,141.552 170.5,140.5C 166.833,140.5 163.167,140.5 159.5,140.5C 159.5,137.5 159.5,134.5 159.5,131.5C 161.735,131.205 163.735,131.539 165.5,132.5C 166.833,132.5 168.167,132.5 169.5,132.5C 169.833,134.5 170.167,136.5 170.5,138.5C 172.144,138.286 173.644,138.62 175,139.5C 175.494,137.866 175.66,136.199 175.5,134.5C 179.394,134.89 183.06,134.223 186.5,132.5C 185.5,131.833 184.5,131.167 183.5,130.5C 188.721,129.376 188.721,128.542 183.5,128C 184.833,126.16 184.666,125.66 183,126.5C 182.338,124.187 181.838,121.854 181.5,119.5C 182.833,119.5 184.167,119.5 185.5,119.5C 186.167,123.5 186.833,123.5 187.5,119.5C 188.552,119.649 189.552,119.483 190.5,119C 188.26,118.023 185.927,117.523 183.5,117.5C 183.5,116.167 183.5,114.833 183.5,113.5C 192.803,112.51 192.803,111.51 183.5,110.5C 187.175,109.944 190.675,108.944 194,107.5C 195,108.167 196,108.833 197,109.5C 198.25,108.427 199.584,108.427 201,109.5C 202.434,109.07 203.601,108.236 204.5,107C 201.078,105.13 197.411,104.297 193.5,104.5C 187.494,105.503 181.494,106.503 175.5,107.5C 178.393,105.735 181.726,104.568 185.5,104C 193.543,103.018 201.543,102.851 209.5,103.5 Z"/></g>
<g><path style="opacity:1" fill="#9e6402" d="M 165.5,132.5 C 165.833,135.5 164.5,136.833 161.5,136.5C 161.5,135.167 161.5,133.833 161.5,132.5C 162.833,132.5 164.167,132.5 165.5,132.5 Z"/></g>
<g><path style="opacity:1" fill="#8b7977" d="M 313.5,131.5 C 316.598,131.413 316.932,131.913 314.5,133C 315.646,133.645 316.646,134.478 317.5,135.5C 318.451,134.674 319.451,134.508 320.5,135C 318.377,136.194 316.043,136.86 313.5,137C 315.901,137.805 315.734,138.638 313,139.5C 311.989,138.663 310.822,138.33 309.5,138.5C 309.187,135.163 310.52,132.829 313.5,131.5 Z"/></g>
<g><path style="opacity:1" fill="#e3e3e3" d="M 88.5,131.5 C 89.4345,132.568 89.7678,133.901 89.5,135.5C 94.6294,136.614 94.6294,137.281 89.5,137.5C 89.5076,143.208 89.0076,143.541 88,138.5C 84.6667,137.5 84.6667,136.5 88,135.5C 88.49,134.207 88.6567,132.873 88.5,131.5 Z"/></g>
<g><path style="opacity:1" fill="#fbc947" d="M 215.5,117.5 C 215.918,118.222 216.584,118.722 217.5,119C 216.484,119.519 215.818,120.353 215.5,121.5C 216.156,123.453 216.489,125.453 216.5,127.5C 218.752,128.333 220.919,128.333 223,127.5C 226.054,129.123 225.554,129.79 221.5,129.5C 221.561,132.05 222.894,133.55 225.5,134C 223.66,136.826 222.994,139.993 223.5,143.5C 212.912,144.643 212.912,145.476 223.5,146C 219.821,146.026 216.488,146.86 213.5,148.5C 213.97,149.693 214.97,150.36 216.5,150.5C 220.206,151.062 223.873,151.729 227.5,152.5C 228.234,153.708 228.567,155.041 228.5,156.5C 229.5,156.5 230.5,156.5 231.5,156.5C 231.5,157.5 231.5,158.5 231.5,159.5C 221.167,159.5 210.833,159.5 200.5,159.5C 197.642,158.834 194.642,158.167 191.5,157.5C 194.107,156.682 196.774,156.182 199.5,156C 196.833,155 196.833,154 199.5,153C 198.167,152.667 196.833,152.333 195.5,152C 196.308,151.692 196.975,151.192 197.5,150.5C 196.067,148.191 196.734,146.691 199.5,146C 194.502,145.572 194.335,144.739 199,143.5C 199.001,140.313 199.834,137.48 201.5,135C 198.999,133.582 199.332,132.582 202.5,132C 200.579,131.64 198.912,130.806 197.5,129.5C 198.025,128.808 198.692,128.308 199.5,128C 203.583,127.857 207.583,127.691 211.5,127.5C 212.167,124.833 212.833,122.167 213.5,119.5C 214.182,118.757 214.849,118.091 215.5,117.5 Z"/></g>
<g><path style="opacity:1" fill="#f2440e" d="M 271.5,132.5 C 274.607,134.152 276.273,136.819 276.5,140.5C 277.548,141.548 278.548,142.548 279.5,143.5C 280.038,145.117 280.371,146.784 280.5,148.5C 274.167,148.5 267.833,148.5 261.5,148.5C 261.286,146.856 261.62,145.356 262.5,144C 259.732,139.391 257.065,134.724 254.5,130C 259.032,125.071 263.032,125.571 266.5,131.5C 268.045,132.452 269.712,132.785 271.5,132.5 Z"/></g>
<g><path style="opacity:1" fill="#e47c1f" d="M 239.5,122.5 C 242.155,122.659 244.488,123.659 246.5,125.5C 249.187,130.216 252.353,134.55 256,138.5C 257.511,141.796 258.677,145.129 259.5,148.5C 256.544,149.137 253.544,149.637 250.5,150C 254.11,151.203 257.776,152.203 261.5,153C 260.928,154.277 260.928,155.777 261.5,157.5C 262.723,159.872 263.723,162.372 264.5,165C 263.565,167.381 263.232,169.881 263.5,172.5C 260.707,172.26 260.207,171.26 262,169.5C 262.667,167.5 262.667,165.5 262,163.5C 260.989,162.663 259.822,162.33 258.5,162.5C 258.5,161.5 258.5,160.5 258.5,159.5C 254.689,159.404 254.689,158.738 258.5,157.5C 250.521,156.668 242.521,156.168 234.5,156C 234.167,155.667 233.833,155.333 233.5,155C 235.044,154.71 236.377,154.044 237.5,153C 234.183,152.502 230.85,152.335 227.5,152.5C 223.873,151.729 220.206,151.062 216.5,150.5C 214.97,150.36 213.97,149.693 213.5,148.5C 227.444,148.712 241.444,148.712 255.5,148.5C 255.665,145.482 255.498,142.482 255,139.5C 253.984,138.366 253.317,138.699 253,140.5C 251.323,137.147 249.157,134.147 246.5,131.5C 244.111,130.82 241.778,129.986 239.5,129C 242.003,128.871 244.003,127.871 245.5,126C 243.294,125.023 241.294,123.857 239.5,122.5 Z"/></g>
<g><path style="opacity:1" fill="#b0522e" d="M 271.5,130.5 C 273.546,132.279 275.713,133.946 278,135.5C 282.088,141.404 285.921,147.404 289.5,153.5C 290.167,155.5 290.833,157.5 291.5,159.5C 287.122,154.454 283.122,149.121 279.5,143.5C 278.548,142.548 277.548,141.548 276.5,140.5C 276.273,136.819 274.607,134.152 271.5,132.5C 271.5,131.833 271.5,131.167 271.5,130.5 Z"/></g>
<g><path style="opacity:1" fill="#e6dd93" d="M 119.5,144.5 C 118.627,149.451 116.961,154.118 114.5,158.5C 113.675,159.386 112.675,159.719 111.5,159.5C 111.755,156.984 112.589,154.65 114,152.5C 115.748,149.709 117.581,147.042 119.5,144.5 Z"/></g>
<g><path style="opacity:1" fill="#fce25d" d="M 159.5,140.5 C 163.167,140.5 166.833,140.5 170.5,140.5C 170.649,141.552 170.483,142.552 170,143.5C 167.266,144.362 167.099,145.195 169.5,146C 164.437,147.328 164.771,148.328 170.5,149C 169.552,149.483 168.552,149.649 167.5,149.5C 167.822,151.722 167.155,153.556 165.5,155C 165.928,161.554 165.928,168.388 165.5,175.5C 163.5,175.5 161.5,175.5 159.5,175.5C 159.5,177.5 159.5,179.5 159.5,181.5C 161.5,181.5 163.5,181.5 165.5,181.5C 165.072,184.246 163.406,185.913 160.5,186.5C 159.614,185.675 159.281,184.675 159.5,183.5C 156.843,183.162 154.51,183.829 152.5,185.5C 149.788,183.74 146.788,183.073 143.5,183.5C 143.5,186.5 143.5,189.5 143.5,192.5C 154.85,192.31 166.183,192.643 177.5,193.5C 179.5,193.333 181.5,193.167 183.5,193C 184.056,192.617 184.389,192.117 184.5,191.5C 185.167,191.833 185.833,192.167 186.5,192.5C 186.5,193.5 186.5,194.5 186.5,195.5C 172.167,195.5 157.833,195.5 143.5,195.5C 141.393,194.532 139.059,194.198 136.5,194.5C 136.5,193.5 136.5,192.5 136.5,191.5C 134.833,191.5 133.167,191.5 131.5,191.5C 124.833,191.5 118.167,191.5 111.5,191.5C 109.066,185.718 110.566,181.384 116,178.5C 119.494,180.377 123.327,181.044 127.5,180.5C 126.167,173.5 126.167,166.5 127.5,159.5C 134.167,159.5 140.833,159.5 147.5,159.5C 146.946,156.438 146.446,153.438 146,150.5C 148.326,148.131 151.16,146.797 154.5,146.5C 155.688,147.364 156.855,148.364 158,149.5C 159.392,146.722 159.892,143.722 159.5,140.5 Z"/></g>
<g><path style="opacity:1" fill="#a27206" d="M 152.5,151.5 C 153.5,151.5 154.5,151.5 155.5,151.5C 156.244,154.95 154.91,156.616 151.5,156.5C 151.366,154.708 151.699,153.042 152.5,151.5 Z"/></g>
<g><path style="opacity:1" fill="#d27d0b" d="M 183.5,162.5 C 183.5,161.833 183.833,161.5 184.5,161.5C 202.845,161.72 221.178,161.386 239.5,160.5C 243.373,160.299 247.039,160.966 250.5,162.5C 228.004,163.828 205.67,163.828 183.5,162.5 Z"/></g>
<g><path style="opacity:1" fill="#320701" d="M 289.5,153.5 C 291.512,155.133 293.179,157.133 294.5,159.5C 296.115,164.053 297.115,168.72 297.5,173.5C 295.799,168.677 293.799,164.01 291.5,159.5C 290.833,157.5 290.167,155.5 289.5,153.5 Z"/></g>
<g><path style="opacity:1" fill="#faea65" d="M 136.5,127.5 C 136.657,128.873 136.49,130.207 136,131.5C 133.769,132.966 132.269,134.966 131.5,137.5C 131.434,139.266 132.268,140.266 134,140.5C 135.763,140.025 137.43,139.358 139,138.5C 139.494,140.134 139.66,141.801 139.5,143.5C 145.206,143.171 150.872,143.505 156.5,144.5C 156.145,145.522 155.478,146.189 154.5,146.5C 151.16,146.797 148.326,148.131 146,150.5C 146.446,153.438 146.946,156.438 147.5,159.5C 140.833,159.5 134.167,159.5 127.5,159.5C 126.167,166.5 126.167,173.5 127.5,180.5C 123.327,181.044 119.494,180.377 116,178.5C 110.566,181.384 109.066,185.718 111.5,191.5C 108.918,191.025 106.918,191.692 105.5,193.5C 104.521,190.375 104.187,187.042 104.5,183.5C 106.176,178.681 107.676,173.681 109,168.5C 111.212,165.998 112.045,162.998 111.5,159.5C 112.675,159.719 113.675,159.386 114.5,158.5C 116.961,154.118 118.627,149.451 119.5,144.5C 119.5,143.833 119.833,143.5 120.5,143.5C 121.5,143.5 122.5,143.5 123.5,143.5C 123.351,142.448 123.517,141.448 124,140.5C 128.243,136.283 132.41,131.95 136.5,127.5 Z"/></g>
<g><path style="opacity:1" fill="#fbab38" d="M 227.5,152.5 C 230.85,152.335 234.183,152.502 237.5,153C 236.377,154.044 235.044,154.71 233.5,155C 233.833,155.333 234.167,155.667 234.5,156C 242.521,156.168 250.521,156.668 258.5,157.5C 254.689,158.738 254.689,159.404 258.5,159.5C 258.5,160.5 258.5,161.5 258.5,162.5C 259.822,162.33 260.989,162.663 262,163.5C 262.667,165.5 262.667,167.5 262,169.5C 260.207,171.26 260.707,172.26 263.5,172.5C 264.774,173.189 264.774,174.023 263.5,175C 264.448,175.483 265.448,175.649 266.5,175.5C 266.802,178.059 266.468,180.393 265.5,182.5C 256.833,182.5 248.167,182.5 239.5,182.5C 239.5,181.5 239.5,180.5 239.5,179.5C 244.844,179.666 250.177,179.499 255.5,179C 249.833,178.667 244.167,178.333 238.5,178C 244.859,177.831 251.193,177.331 257.5,176.5C 254.232,175.513 250.898,175.18 247.5,175.5C 247.238,172.079 248.572,171.079 251.5,172.5C 252.386,171.675 252.719,170.675 252.5,169.5C 250.567,169.271 248.9,168.438 247.5,167C 243.981,166.623 240.481,166.123 237,165.5C 232.511,166.559 228.011,166.559 223.5,165.5C 218.36,164.512 213.026,164.179 207.5,164.5C 199.14,164.831 190.807,164.498 182.5,163.5C 182.624,162.893 182.957,162.56 183.5,162.5C 205.67,163.828 228.004,163.828 250.5,162.5C 247.039,160.966 243.373,160.299 239.5,160.5C 221.178,161.386 202.845,161.72 184.5,161.5C 184.389,160.883 184.056,160.383 183.5,160C 189.157,159.501 194.824,159.334 200.5,159.5C 210.833,159.5 221.167,159.5 231.5,159.5C 231.5,158.5 231.5,157.5 231.5,156.5C 230.5,156.5 229.5,156.5 228.5,156.5C 228.567,155.041 228.234,153.708 227.5,152.5 Z"/></g>
<g><path style="opacity:1" fill="#eee7a4" d="M 111.5,159.5 C 112.045,162.998 111.212,165.998 109,168.5C 107.676,173.681 106.176,178.681 104.5,183.5C 105.244,174.946 107.577,166.946 111.5,159.5 Z"/></g>
<g><path style="opacity:1" fill="#f7f6cf" d="M 79.5,67.5 C 70.5368,76.76 62.0368,86.4267 54,96.5C 41.2948,116.012 32.1282,137.012 26.5,159.5C 23.8787,164.442 22.0454,169.776 21,175.5C 19.0379,189.874 19.2046,204.208 21.5,218.5C 21.5561,220.64 22.2227,222.306 23.5,223.5C 25.8134,234.057 28.1467,244.723 30.5,255.5C 28.8333,255.5 27.1667,255.5 25.5,255.5C 24.0335,250.307 23.3669,244.973 23.5,239.5C 22.5,239.5 21.5,239.5 20.5,239.5C 18.7376,216.548 18.2376,193.548 19,170.5C 23.2065,162.763 25.2065,154.43 25,145.5C 25.4283,141.381 27.4283,138.381 31,136.5C 31.49,135.207 31.6567,133.873 31.5,132.5C 32.6868,130.174 34.0202,127.84 35.5,125.5C 35.2907,124.914 34.9574,124.414 34.5,124C 39.0531,119.637 41.2197,114.47 41,108.5C 41.9643,106.635 43.1309,104.968 44.5,103.5C 45.5,103.5 46.5,103.5 47.5,103.5C 47.5,100.833 47.5,98.1667 47.5,95.5C 48.8333,95.5 50.1667,95.5 51.5,95.5C 51.3573,93.7376 51.6906,92.0709 52.5,90.5C 54.8825,88.6153 56.7159,86.2819 58,83.5C 61.7639,85.0251 63.5972,83.6917 63.5,79.5C 64.5,79.5 65.5,79.5 66.5,79.5C 66.3505,78.448 66.5172,77.448 67,76.5C 69.1476,75.1951 70.6476,73.3617 71.5,71C 73.9326,70.2342 75.766,68.7342 77,66.5C 77.6708,67.2524 78.5041,67.5858 79.5,67.5 Z"/></g>
<g><path style="opacity:1" fill="#db3709" d="M 279.5,143.5 C 283.122,149.121 287.122,154.454 291.5,159.5C 294.391,168.641 296.725,177.974 298.5,187.5C 299.687,194.326 299.687,200.993 298.5,207.5C 298.167,207.5 297.833,207.5 297.5,207.5C 297.187,195.224 295.187,183.224 291.5,171.5C 288.824,173.858 287.491,176.858 287.5,180.5C 284.753,180.813 282.086,180.48 279.5,179.5C 280.025,178.808 280.692,178.308 281.5,178C 278.39,176.625 277.39,174.458 278.5,171.5C 279.396,172.506 280.062,172.506 280.5,171.5C 276.217,170.508 271.884,170.174 267.5,170.5C 267.026,167.15 266.859,163.817 267,160.5C 268.399,159.773 269.899,159.273 271.5,159C 268.173,158.39 264.839,157.89 261.5,157.5C 260.928,155.777 260.928,154.277 261.5,153C 257.776,152.203 254.11,151.203 250.5,150C 253.544,149.637 256.544,149.137 259.5,148.5C 260.167,148.5 260.833,148.5 261.5,148.5C 267.833,148.5 274.167,148.5 280.5,148.5C 280.371,146.784 280.038,145.117 279.5,143.5 Z"/></g>
<g><path style="opacity:1" fill="#210502" d="M 297.5,173.5 C 298.467,174.806 299.801,175.473 301.5,175.5C 300.944,187.108 301.611,198.608 303.5,210C 303.25,212.422 302.416,214.589 301,216.5C 300.774,220.887 300.274,225.221 299.5,229.5C 300.609,231.214 299.942,231.881 297.5,231.5C 297.461,234.535 296.461,237.202 294.5,239.5C 293.508,239.672 292.842,239.338 292.5,238.5C 294.59,235.16 295.923,231.493 296.5,227.5C 297.222,227.082 297.722,226.416 298,225.5C 298.497,222.854 298.664,220.187 298.5,217.5C 301.338,202.895 301.005,188.229 297.5,173.5 Z"/></g>
<g><path style="opacity:1" fill="#f7c44f" d="M 207.5,164.5 C 213.026,164.179 218.36,164.512 223.5,165.5C 225.335,166.96 227.335,168.293 229.5,169.5C 228.66,170.735 227.66,171.735 226.5,172.5C 225.1,173.1 224.1,174.1 223.5,175.5C 223.5,180.833 223.5,186.167 223.5,191.5C 223.5,192.5 223.5,193.5 223.5,194.5C 220.833,194.5 218.167,194.5 215.5,194.5C 215.627,196.915 215.793,199.249 216,201.5C 213.544,203.654 210.711,204.987 207.5,205.5C 207.823,201.774 207.489,198.107 206.5,194.5C 203.319,192.408 200.319,190.075 197.5,187.5C 189.687,186.318 186.687,189.651 188.5,197.5C 172.138,197.227 155.805,197.56 139.5,198.5C 139.5,199.5 139.5,200.5 139.5,201.5C 138.566,200.432 138.232,199.099 138.5,197.5C 140.554,197.635 142.221,196.968 143.5,195.5C 157.833,195.5 172.167,195.5 186.5,195.5C 186.5,194.5 186.5,193.5 186.5,192.5C 187.038,190.883 187.371,189.216 187.5,187.5C 187.414,186.504 187.748,185.671 188.5,185C 190.512,184.198 192.679,183.698 195,183.5C 196.169,182.991 197.002,182.158 197.5,181C 195.323,179.814 194.323,177.981 194.5,175.5C 195.833,175.5 197.167,175.5 198.5,175.5C 198.5,176.5 198.5,177.5 198.5,178.5C 203.509,178.533 207.009,176.199 209,171.5C 211.388,172.117 213.721,172.45 216,172.5C 217.194,170.976 218.694,169.81 220.5,169C 216.172,167.987 211.839,166.487 207.5,164.5 Z"/></g>
<g><path style="opacity:1" fill="#fdf1cd" d="M 226.5,172.5 C 230.007,171.994 233.174,172.66 236,174.5C 236.667,180.833 236.667,187.167 236,193.5C 232.143,197.085 227.976,197.418 223.5,194.5C 223.5,193.5 223.5,192.5 223.5,191.5C 226.561,194.372 230.061,195.038 234,193.5C 235.41,187.621 235.91,181.621 235.5,175.5C 231.513,174.295 227.513,174.295 223.5,175.5C 224.1,174.1 225.1,173.1 226.5,172.5 Z"/></g>
<g><path style="opacity:1" fill="#f67222" d="M 261.5,157.5 C 264.839,157.89 268.173,158.39 271.5,159C 269.899,159.273 268.399,159.773 267,160.5C 266.859,163.817 267.026,167.15 267.5,170.5C 267.774,175.263 267.441,179.93 266.5,184.5C 265.662,184.158 265.328,183.492 265.5,182.5C 266.468,180.393 266.802,178.059 266.5,175.5C 265.448,175.649 264.448,175.483 263.5,175C 264.774,174.023 264.774,173.189 263.5,172.5C 263.232,169.881 263.565,167.381 264.5,165C 263.723,162.372 262.723,159.872 261.5,157.5 Z"/></g>
<g><path style="opacity:1" fill="#fafdfb" d="M 223.5,191.5 C 223.5,186.167 223.5,180.833 223.5,175.5C 227.513,174.295 231.513,174.295 235.5,175.5C 235.91,181.621 235.41,187.621 234,193.5C 230.061,195.038 226.561,194.372 223.5,191.5 Z"/></g>
<g><path style="opacity:1" fill="#e17f11" d="M 239.5,182.5 C 248.167,182.5 256.833,182.5 265.5,182.5C 265.328,183.492 265.662,184.158 266.5,184.5C 266.5,184.833 266.5,185.167 266.5,185.5C 257.167,185.5 247.833,185.5 238.5,185.5C 237.115,184.053 237.448,183.053 239.5,182.5 Z"/></g>
<g><path style="opacity:1" fill="#e78e1f" d="M 203.5,182.5 C 209.833,182.5 216.167,182.5 222.5,182.5C 222.5,183.5 222.5,184.5 222.5,185.5C 218.774,185.177 215.107,185.511 211.5,186.5C 212.853,187.524 213.52,188.857 213.5,190.5C 209.833,190.5 206.167,190.5 202.5,190.5C 202.519,188.94 202.852,187.44 203.5,186C 203.095,185.055 202.428,184.388 201.5,184C 202.416,183.722 203.082,183.222 203.5,182.5 Z"/></g>
<g><path style="opacity:1" fill="#dc911d" d="M 187.5,187.5 C 187.371,189.216 187.038,190.883 186.5,192.5C 185.833,192.167 185.167,191.833 184.5,191.5C 179.401,190.728 174.401,190.395 169.5,190.5C 169.5,189.5 169.5,188.5 169.5,187.5C 175.5,187.5 181.5,187.5 187.5,187.5 Z"/></g>
<g><path style="opacity:1" fill="#f7f8df" d="M 26.5,159.5 C 22.5193,180.681 21.5193,202.014 23.5,223.5C 22.2227,222.306 21.5561,220.64 21.5,218.5C 19.2046,204.208 19.0379,189.874 21,175.5C 22.0454,169.776 23.8787,164.442 26.5,159.5 Z"/></g>
<g><path style="opacity:1" fill="#fcfaf2" d="M 207.5,205.5 C 207.5,205.833 207.5,206.167 207.5,206.5C 207.5,206.833 207.5,207.167 207.5,207.5C 204.167,207.5 200.833,207.5 197.5,207.5C 196.478,204.478 194.478,202.478 191.5,201.5C 190.789,199.97 189.789,198.637 188.5,197.5C 186.687,189.651 189.687,186.318 197.5,187.5C 200.319,190.075 203.319,192.408 206.5,194.5C 207.489,198.107 207.823,201.774 207.5,205.5 Z"/></g>
<g><path style="opacity:1" fill="#fbaf3b" d="M 238.5,185.5 C 247.833,185.5 257.167,185.5 266.5,185.5C 266.5,185.833 266.5,186.167 266.5,186.5C 263.774,186.264 261.441,187.097 259.5,189C 256.561,191.694 253.728,194.527 251,197.5C 250.54,200.962 251.04,204.296 252.5,207.5C 250.52,206.152 249.353,204.152 249,201.5C 248.851,204.279 248.017,204.779 246.5,203C 247.634,201.984 247.301,201.317 245.5,201C 242.518,200.502 239.518,200.335 236.5,200.5C 236.756,197.543 237.756,194.876 239.5,192.5C 238.626,190.253 238.292,187.92 238.5,185.5 Z"/></g>
<g><path style="opacity:1" fill="#a9513c" d="M 291.5,159.5 C 293.799,164.01 295.799,168.677 297.5,173.5C 301.005,188.229 301.338,202.895 298.5,217.5C 298.5,214.167 298.5,210.833 298.5,207.5C 299.687,200.993 299.687,194.326 298.5,187.5C 296.725,177.974 294.391,168.641 291.5,159.5 Z"/></g>
<g><path style="opacity:1" fill="#c95e09" d="M 111.5,191.5 C 118.167,191.5 124.833,191.5 131.5,191.5C 131.5,192.5 131.5,193.5 131.5,194.5C 122.833,194.5 114.167,194.5 105.5,194.5C 105.5,194.167 105.5,193.833 105.5,193.5C 106.918,191.692 108.918,191.025 111.5,191.5 Z"/></g>
<g><path style="opacity:1" fill="#e4d5c2" d="M 68.5,195.5 C 72.1836,196.517 74.5169,198.85 75.5,202.5C 72.7081,202.452 70.8747,203.785 70,206.5C 68.4851,204.323 66.9851,202.156 65.5,200C 67.0997,198.877 68.0997,197.377 68.5,195.5 Z"/></g>
<g><path style="opacity:1" fill="#f9ba48" d="M 223.5,165.5 C 228.011,166.559 232.511,166.559 237,165.5C 240.481,166.123 243.981,166.623 247.5,167C 248.9,168.438 250.567,169.271 252.5,169.5C 252.719,170.675 252.386,171.675 251.5,172.5C 248.572,171.079 247.238,172.079 247.5,175.5C 250.898,175.18 254.232,175.513 257.5,176.5C 251.193,177.331 244.859,177.831 238.5,178C 244.167,178.333 249.833,178.667 255.5,179C 250.177,179.499 244.844,179.666 239.5,179.5C 239.5,180.5 239.5,181.5 239.5,182.5C 237.448,183.053 237.115,184.053 238.5,185.5C 238.292,187.92 238.626,190.253 239.5,192.5C 237.756,194.876 236.756,197.543 236.5,200.5C 236.578,203.487 235.411,204.153 233,202.5C 231.036,203.852 228.869,204.686 226.5,205C 220.118,205.247 213.785,205.747 207.5,206.5C 207.5,206.167 207.5,205.833 207.5,205.5C 210.711,204.987 213.544,203.654 216,201.5C 215.793,199.249 215.627,196.915 215.5,194.5C 218.167,194.5 220.833,194.5 223.5,194.5C 227.976,197.418 232.143,197.085 236,193.5C 236.667,187.167 236.667,180.833 236,174.5C 233.174,172.66 230.007,171.994 226.5,172.5C 227.66,171.735 228.66,170.735 229.5,169.5C 227.335,168.293 225.335,166.96 223.5,165.5 Z"/></g>
<g><path style="opacity:1" fill="#d83f05" d="M 188.5,197.5 C 189.789,198.637 190.789,199.97 191.5,201.5C 175.167,201.5 158.833,201.5 142.5,201.5C 141.5,201.5 140.5,201.5 139.5,201.5C 139.5,200.5 139.5,199.5 139.5,198.5C 155.805,197.56 172.138,197.227 188.5,197.5 Z"/></g>
<g><path style="opacity:1" fill="#e3cdab" d="M 332.5,194.5 C 334.94,196.055 336.94,198.055 338.5,200.5C 336.605,201.973 334.939,203.64 333.5,205.5C 332.196,202.908 330.196,201.075 327.5,200C 329.766,198.574 331.432,196.74 332.5,194.5 Z"/></g>
<g><path style="opacity:1" fill="#fbf9f1" d="M 266.5,186.5 C 268.229,187.117 269.729,188.117 271,189.5C 271.667,192.5 271.667,195.5 271,198.5C 270.617,199.056 270.117,199.389 269.5,199.5C 266.703,201.795 264.036,204.295 261.5,207C 258.518,207.498 255.518,207.665 252.5,207.5C 251.04,204.296 250.54,200.962 251,197.5C 253.728,194.527 256.561,191.694 259.5,189C 261.441,187.097 263.774,186.264 266.5,186.5 Z"/></g>
<g><path style="opacity:1" fill="#e4380a" d="M 267.5,170.5 C 271.884,170.174 276.217,170.508 280.5,171.5C 280.062,172.506 279.396,172.506 278.5,171.5C 277.39,174.458 278.39,176.625 281.5,178C 280.692,178.308 280.025,178.808 279.5,179.5C 282.086,180.48 284.753,180.813 287.5,180.5C 287.491,176.858 288.824,173.858 291.5,171.5C 295.187,183.224 297.187,195.224 297.5,207.5C 296.611,211.822 295.944,216.322 295.5,221C 295.392,222.681 294.725,223.848 293.5,224.5C 283.5,224.5 273.5,224.5 263.5,224.5C 264.908,219.267 265.908,213.933 266.5,208.5C 265.909,207.849 265.243,207.182 264.5,206.5C 266.605,204.408 268.272,202.075 269.5,199.5C 270.117,199.389 270.617,199.056 271,198.5C 271.667,195.5 271.667,192.5 271,189.5C 269.729,188.117 268.229,187.117 266.5,186.5C 266.5,186.167 266.5,185.833 266.5,185.5C 266.5,185.167 266.5,184.833 266.5,184.5C 267.441,179.93 267.774,175.263 267.5,170.5 Z"/></g>
<g><path style="opacity:1" fill="#eab133" d="M 195.5,207.5 C 192.167,207.5 188.833,207.5 185.5,207.5C 185.5,208.5 185.5,209.5 185.5,210.5C 184.844,209.722 184.011,209.056 183,208.5C 181.234,209.233 179.401,209.567 177.5,209.5C 177.082,208.778 176.416,208.278 175.5,208C 164.839,207.5 154.172,207.333 143.5,207.5C 157.193,206.809 171.026,206.142 185,205.5C 187.099,206.287 189.266,206.62 191.5,206.5C 192.895,202.805 194.228,203.139 195.5,207.5 Z"/></g>
<g><path style="opacity:1" fill="#b14007" d="M 143.5,207.5 C 154.172,207.333 164.839,207.5 175.5,208C 176.416,208.278 177.082,208.778 177.5,209.5C 168.22,210.447 158.886,210.78 149.5,210.5C 136.833,210.5 124.167,210.5 111.5,210.5C 111.196,209.85 110.863,209.183 110.5,208.5C 121.48,207.501 132.48,207.168 143.5,207.5 Z"/></g>
<g><path style="opacity:1" fill="#e5d691" d="M 104.5,183.5 C 104.187,187.042 104.521,190.375 105.5,193.5C 105.5,193.833 105.5,194.167 105.5,194.5C 104.348,199.985 104.182,205.651 105,211.5C 107.235,220.511 109.401,229.511 111.5,238.5C 103.388,220.843 101.055,202.51 104.5,183.5 Z"/></g>
<g><path style="opacity:1" fill="#f2efd3" d="M 368.5,143.5 C 372.618,143.263 373.951,144.93 372.5,148.5C 374.122,153.683 374.955,159.016 375,164.5C 376.252,166.001 377.252,167.668 378,169.5C 378.307,184.841 378.807,200.174 379.5,215.5C 377.83,222.032 376.663,228.699 376,235.5C 375.694,237.906 374.861,240.073 373.5,242C 373.735,242.873 374.069,243.707 374.5,244.5C 372.872,248.008 371.706,251.675 371,255.5C 370.28,257.056 369.113,258.056 367.5,258.5C 370.445,250.388 372.612,242.054 374,233.5C 378.824,203.042 376.99,173.042 368.5,143.5 Z"/></g>
<g><path style="opacity:1" fill="#a72d08" d="M 195.5,207.5 C 196.167,207.5 196.833,207.5 197.5,207.5C 200.833,207.5 204.167,207.5 207.5,207.5C 220.837,207.333 234.171,207.5 247.5,208C 248.833,209 248.833,210 247.5,211C 244.854,211.497 242.187,211.664 239.5,211.5C 236.833,211.5 234.167,211.5 231.5,211.5C 218.167,211.5 204.833,211.5 191.5,211.5C 189.379,211.675 187.379,211.341 185.5,210.5C 185.5,209.5 185.5,208.5 185.5,207.5C 188.833,207.5 192.167,207.5 195.5,207.5 Z"/></g>
<g><path style="opacity:1" fill="#f7ae41" d="M 111.5,210.5 C 124.167,210.5 136.833,210.5 149.5,210.5C 149.918,211.222 150.584,211.722 151.5,212C 150.263,212.232 149.263,212.732 148.5,213.5C 137.653,213.719 126.986,214.385 116.5,215.5C 114.5,215.5 112.5,215.5 110.5,215.5C 110.611,214.883 110.944,214.383 111.5,214C 114.167,213.667 116.833,213.333 119.5,213C 116.325,213.053 113.658,212.22 111.5,210.5 Z"/></g>
<g><path style="opacity:1" fill="#f79b32" d="M 269.5,199.5 C 268.272,202.075 266.605,204.408 264.5,206.5C 265.243,207.182 265.909,207.849 266.5,208.5C 265.282,210.828 264.282,213.328 263.5,216C 257.5,216.333 251.5,216.667 245.5,217C 247.715,218.044 250.048,218.71 252.5,219C 251.5,219.333 250.5,219.667 249.5,220C 251.473,220.495 253.473,220.662 255.5,220.5C 255.5,221.5 255.5,222.5 255.5,223.5C 252.833,223.5 250.167,223.5 247.5,223.5C 247.5,222.5 247.5,221.5 247.5,220.5C 242.881,219.686 238.214,219.353 233.5,219.5C 232.766,218.292 232.433,216.959 232.5,215.5C 237.511,215.666 242.511,215.499 247.5,215C 244.497,214.251 241.831,213.085 239.5,211.5C 242.187,211.664 244.854,211.497 247.5,211C 248.833,210 248.833,209 247.5,208C 234.171,207.5 220.837,207.333 207.5,207.5C 207.5,207.167 207.5,206.833 207.5,206.5C 213.785,205.747 220.118,205.247 226.5,205C 228.869,204.686 231.036,203.852 233,202.5C 235.411,204.153 236.578,203.487 236.5,200.5C 239.518,200.335 242.518,200.502 245.5,201C 247.301,201.317 247.634,201.984 246.5,203C 248.017,204.779 248.851,204.279 249,201.5C 249.353,204.152 250.52,206.152 252.5,207.5C 255.518,207.665 258.518,207.498 261.5,207C 264.036,204.295 266.703,201.795 269.5,199.5 Z"/></g>
<g><path style="opacity:1" fill="#fbaf51" d="M 191.5,211.5 C 204.833,211.5 218.167,211.5 231.5,211.5C 218.359,213.091 205.026,214.091 191.5,214.5C 191.5,214.167 191.5,213.833 191.5,213.5C 191.5,212.833 191.5,212.167 191.5,211.5 Z"/></g>
<g><path style="opacity:1" fill="#b87803" d="M 148.5,213.5 C 148.389,214.117 148.056,214.617 147.5,215C 137.172,215.5 126.839,215.666 116.5,215.5C 126.986,214.385 137.653,213.719 148.5,213.5 Z"/></g>
<g><path style="opacity:1" fill="#efae36" d="M 231.5,211.5 C 234.167,211.5 236.833,211.5 239.5,211.5C 241.831,213.085 244.497,214.251 247.5,215C 242.511,215.499 237.511,215.666 232.5,215.5C 232.433,216.959 232.766,218.292 233.5,219.5C 229.181,218.29 224.848,218.29 220.5,219.5C 219.754,220.736 219.421,222.07 219.5,223.5C 214.595,224.445 209.595,224.779 204.5,224.5C 209.857,224.579 212.191,221.913 211.5,216.5C 204.637,216.362 197.97,215.696 191.5,214.5C 205.026,214.091 218.359,213.091 231.5,211.5 Z"/></g>
<g><path style="opacity:1" fill="#fbd361" d="M 185.5,210.5 C 187.379,211.341 189.379,211.675 191.5,211.5C 191.5,212.167 191.5,212.833 191.5,213.5C 180.194,214.416 168.694,214.082 157,212.5C 155.112,212.796 153.278,213.296 151.5,214C 153.769,216.023 156.436,216.856 159.5,216.5C 159.5,217.833 159.5,219.167 159.5,220.5C 155.629,220.185 151.962,220.518 148.5,221.5C 140.93,221.276 133.43,221.276 126,221.5C 123.323,221.038 120.823,220.204 118.5,219C 115.854,218.503 113.187,218.336 110.5,218.5C 110.5,217.5 110.5,216.5 110.5,215.5C 112.5,215.5 114.5,215.5 116.5,215.5C 126.839,215.666 137.172,215.5 147.5,215C 148.056,214.617 148.389,214.117 148.5,213.5C 149.263,212.732 150.263,212.232 151.5,212C 150.584,211.722 149.918,211.222 149.5,210.5C 158.886,210.78 168.22,210.447 177.5,209.5C 179.401,209.567 181.234,209.233 183,208.5C 184.011,209.056 184.844,209.722 185.5,210.5 Z"/></g>
<g><path style="opacity:1" fill="#f58221" d="M 266.5,208.5 C 265.908,213.933 264.908,219.267 263.5,224.5C 258.637,224.181 253.97,224.514 249.5,225.5C 247.973,225.573 246.973,224.906 246.5,223.5C 246.833,223.5 247.167,223.5 247.5,223.5C 250.167,223.5 252.833,223.5 255.5,223.5C 255.5,222.5 255.5,221.5 255.5,220.5C 253.473,220.662 251.473,220.495 249.5,220C 250.5,219.667 251.5,219.333 252.5,219C 250.048,218.71 247.715,218.044 245.5,217C 251.5,216.667 257.5,216.333 263.5,216C 264.282,213.328 265.282,210.828 266.5,208.5 Z"/></g>
<g><path style="opacity:1" fill="#f8b054" d="M 233.5,219.5 C 238.214,219.353 242.881,219.686 247.5,220.5C 247.5,221.5 247.5,222.5 247.5,223.5C 247.167,223.5 246.833,223.5 246.5,223.5C 241.649,223.545 237.316,222.211 233.5,219.5 Z"/></g>
<g><path style="opacity:1" fill="#fad04d" d="M 191.5,213.5 C 191.5,213.833 191.5,214.167 191.5,214.5C 197.97,215.696 204.637,216.362 211.5,216.5C 212.191,221.913 209.857,224.579 204.5,224.5C 201.941,224.198 199.607,224.532 197.5,225.5C 196.833,224.833 196.167,224.167 195.5,223.5C 195.389,222.883 195.056,222.383 194.5,222C 187.986,221.18 181.653,221.347 175.5,222.5C 174.1,223.1 173.1,224.1 172.5,225.5C 172.167,225.5 171.833,225.5 171.5,225.5C 170.469,224.751 169.302,224.085 168,223.5C 161.256,224.479 154.422,224.812 147.5,224.5C 148.718,223.839 150.051,223.172 151.5,222.5C 150.675,221.614 149.675,221.281 148.5,221.5C 151.962,220.518 155.629,220.185 159.5,220.5C 159.5,219.167 159.5,217.833 159.5,216.5C 156.436,216.856 153.769,216.023 151.5,214C 153.278,213.296 155.112,212.796 157,212.5C 168.694,214.082 180.194,214.416 191.5,213.5 Z"/></g>
<g><path style="opacity:1" fill="#fef0c0" d="M 175.5,222.5 C 181.653,221.347 187.986,221.18 194.5,222C 195.056,222.383 195.389,222.883 195.5,223.5C 188.869,222.669 182.202,222.336 175.5,222.5 Z"/></g>
<g><path style="opacity:1" fill="#e8a12b" d="M 147.5,224.5 C 154.422,224.812 161.256,224.479 168,223.5C 169.302,224.085 170.469,224.751 171.5,225.5C 156.462,224.85 141.795,225.517 127.5,227.5C 121.456,227.411 115.622,227.411 110,227.5C 109.342,225.892 109.842,224.725 111.5,224C 123.493,223.966 135.493,224.133 147.5,224.5 Z"/></g>
<g><path style="opacity:1" fill="#e27021" d="M 219.5,223.5 C 219.5,224.833 219.5,226.167 219.5,227.5C 216.402,228.821 212.902,229.488 209,229.5C 205.317,229.499 201.817,229.165 198.5,228.5C 198.167,228.5 197.833,228.5 197.5,228.5C 197.5,227.5 197.5,226.5 197.5,225.5C 199.607,224.532 201.941,224.198 204.5,224.5C 209.595,224.779 214.595,224.445 219.5,223.5 Z"/></g>
<g><path style="opacity:1" fill="#f27715" d="M 171.5,225.5 C 171.833,225.5 172.167,225.5 172.5,225.5C 173.404,226.209 173.737,227.209 173.5,228.5C 171.087,229.111 168.587,229.445 166,229.5C 153.173,228.65 140.34,227.984 127.5,227.5C 141.795,225.517 156.462,224.85 171.5,225.5 Z"/></g>
<g><path style="opacity:1" fill="#b23b1f" d="M 297.5,207.5 C 297.833,207.5 298.167,207.5 298.5,207.5C 298.5,210.833 298.5,214.167 298.5,217.5C 298.664,220.187 298.497,222.854 298,225.5C 297.722,226.416 297.222,227.082 296.5,227.5C 296.565,227.062 296.399,226.728 296,226.5C 294.187,230.404 292.687,234.404 291.5,238.5C 287.085,238.139 283.085,236.806 279.5,234.5C 283.197,235.181 286.864,235.681 290.5,236C 291.591,233.936 291.758,231.769 291,229.5C 289.989,228.663 288.822,228.33 287.5,228.5C 287.5,227.5 287.5,226.5 287.5,225.5C 289.735,225.795 291.735,225.461 293.5,224.5C 294.725,223.848 295.392,222.681 295.5,221C 295.944,216.322 296.611,211.822 297.5,207.5 Z"/></g>
<g><path style="opacity:1" fill="#fcf9f5" d="M 175.5,222.5 C 182.202,222.336 188.869,222.669 195.5,223.5C 196.167,224.167 196.833,224.833 197.5,225.5C 197.5,226.5 197.5,227.5 197.5,228.5C 197.634,230.292 197.301,231.958 196.5,233.5C 192.722,235.051 188.722,235.718 184.5,235.5C 181.314,235.498 178.314,235.165 175.5,234.5C 174.833,232.5 174.167,230.5 173.5,228.5C 173.737,227.209 173.404,226.209 172.5,225.5C 173.1,224.1 174.1,223.1 175.5,222.5 Z"/></g>
<g><path style="opacity:1" fill="#f74903" d="M 198.5,228.5 C 198.5,227.5 198.5,226.5 198.5,225.5C 204.833,225.5 211.167,225.5 217.5,225.5C 217.5,226.5 217.5,227.5 217.5,228.5C 211.167,228.5 204.833,228.5 198.5,228.5 Z"/></g>
<g><path style="opacity:1" fill="#af1801" d="M 249.5,225.5 C 253.97,224.514 258.637,224.181 263.5,224.5C 273.5,224.5 283.5,224.5 293.5,224.5C 291.735,225.461 289.735,225.795 287.5,225.5C 287.5,226.5 287.5,227.5 287.5,228.5C 280.313,228.175 273.313,228.509 266.5,229.5C 263.448,227.822 260.115,227.155 256.5,227.5C 254.412,226.061 252.079,225.394 249.5,225.5 Z"/></g>
<g><path style="opacity:1" fill="#da5e44" d="M 256.5,227.5 C 260.115,227.155 263.448,227.822 266.5,229.5C 270.622,229.697 274.622,230.53 278.5,232C 279.598,232.77 279.598,233.603 278.5,234.5C 270.956,232.587 263.622,230.253 256.5,227.5 Z"/></g>
<g><path style="opacity:1" fill="#db3c1e" d="M 266.5,229.5 C 273.313,228.509 280.313,228.175 287.5,228.5C 288.822,228.33 289.989,228.663 291,229.5C 291.758,231.769 291.591,233.936 290.5,236C 286.864,235.681 283.197,235.181 279.5,234.5C 279.167,234.5 278.833,234.5 278.5,234.5C 279.598,233.603 279.598,232.77 278.5,232C 274.622,230.53 270.622,229.697 266.5,229.5 Z"/></g>
<g><path style="opacity:1" fill="#f1b453" d="M 219.5,227.5 C 220.612,229.599 221.279,231.933 221.5,234.5C 213.221,233.56 204.888,233.227 196.5,233.5C 197.301,231.958 197.634,230.292 197.5,228.5C 197.833,228.5 198.167,228.5 198.5,228.5C 201.817,229.165 205.317,229.499 209,229.5C 212.902,229.488 216.402,228.821 219.5,227.5 Z"/></g>
<g><path style="opacity:1" fill="#f9dc5d" d="M 131.5,191.5 C 133.167,191.5 134.833,191.5 136.5,191.5C 136.5,192.5 136.5,193.5 136.5,194.5C 139.059,194.198 141.393,194.532 143.5,195.5C 142.221,196.968 140.554,197.635 138.5,197.5C 138.232,199.099 138.566,200.432 139.5,201.5C 140.5,201.5 141.5,201.5 142.5,201.5C 142.369,202.239 142.536,202.906 143,203.5C 159.265,202.84 175.431,202.174 191.5,201.5C 194.478,202.478 196.478,204.478 197.5,207.5C 196.833,207.5 196.167,207.5 195.5,207.5C 194.228,203.139 192.895,202.805 191.5,206.5C 189.266,206.62 187.099,206.287 185,205.5C 171.026,206.142 157.193,206.809 143.5,207.5C 132.48,207.168 121.48,207.501 110.5,208.5C 110.863,209.183 111.196,209.85 111.5,210.5C 113.658,212.22 116.325,213.053 119.5,213C 116.833,213.333 114.167,213.667 111.5,214C 110.944,214.383 110.611,214.883 110.5,215.5C 110.5,216.5 110.5,217.5 110.5,218.5C 113.187,218.336 115.854,218.503 118.5,219C 120.823,220.204 123.323,221.038 126,221.5C 133.43,221.276 140.93,221.276 148.5,221.5C 149.675,221.281 150.675,221.614 151.5,222.5C 150.051,223.172 148.718,223.839 147.5,224.5C 135.493,224.133 123.493,223.966 111.5,224C 109.842,224.725 109.342,225.892 110,227.5C 115.622,227.411 121.456,227.411 127.5,227.5C 140.34,227.984 153.173,228.65 166,229.5C 168.587,229.445 171.087,229.111 173.5,228.5C 174.167,230.5 174.833,232.5 175.5,234.5C 159.5,234.5 143.5,234.5 127.5,234.5C 124.167,234.5 120.833,234.5 117.5,234.5C 117.5,235.833 117.5,237.167 117.5,238.5C 126.167,238.5 134.833,238.5 143.5,238.5C 144.209,239.404 145.209,239.737 146.5,239.5C 148.338,241.661 148.672,243.995 147.5,246.5C 148.729,247.281 150.062,247.781 151.5,248C 148.986,249.252 146.32,249.752 143.5,249.5C 143.5,253.167 143.5,256.833 143.5,260.5C 154.146,260.671 154.146,261.171 143.5,262C 144.833,262.667 146.167,263.333 147.5,264C 142.188,267.042 142.855,268.209 149.5,267.5C 149.286,269.144 149.62,270.644 150.5,272C 149.833,272.333 149.167,272.667 148.5,273C 152.375,274.38 155.042,276.88 156.5,280.5C 157.5,281.167 158.5,281.833 159.5,282.5C 156.67,282.306 154.004,281.639 151.5,280.5C 150.718,278.549 149.384,277.049 147.5,276C 142.223,273.865 137.889,270.532 134.5,266C 132.03,265.011 129.697,263.845 127.5,262.5C 127.762,261.022 127.429,259.689 126.5,258.5C 123.858,254.691 121.025,251.024 118,247.5C 117.289,245.101 117.456,242.768 118.5,240.5C 116.257,239.526 113.924,239.192 111.5,239.5C 111.5,239.167 111.5,238.833 111.5,238.5C 109.401,229.511 107.235,220.511 105,211.5C 104.182,205.651 104.348,199.985 105.5,194.5C 114.167,194.5 122.833,194.5 131.5,194.5C 131.5,193.5 131.5,192.5 131.5,191.5 Z"/></g>
<g><path style="opacity:1" fill="#f4983e" d="M 142.5,201.5 C 158.833,201.5 175.167,201.5 191.5,201.5C 175.431,202.174 159.265,202.84 143,203.5C 142.536,202.906 142.369,202.239 142.5,201.5 Z"/></g>
<g><path style="opacity:1" fill="#faeb68" d="M 135.5,195.5 C 136.692,196.566 136.359,197.399 134.5,198C 135.861,199.584 136.528,201.418 136.5,203.5C 137.552,203.351 138.552,203.517 139.5,204C 134.167,204.667 134.167,205.333 139.5,206C 138.5,206.167 137.5,206.333 136.5,206.5C 132.234,204.634 127.901,202.967 123.5,201.5C 117.645,203.106 111.811,203.773 106,203.5C 105.333,201.167 105.333,198.833 106,196.5C 106.519,197.516 107.353,198.182 108.5,198.5C 115.543,196.176 122.709,195.842 130,197.5C 132.111,197.299 133.945,196.633 135.5,195.5 Z"/></g>
<g><path style="opacity:1" fill="#7b3e26" d="M 296.5,227.5 C 295.923,231.493 294.59,235.16 292.5,238.5C 292.167,238.5 291.833,238.5 291.5,238.5C 292.687,234.404 294.187,230.404 296,226.5C 296.399,226.728 296.565,227.062 296.5,227.5 Z"/></g>
<g><path style="opacity:1" fill="#c77f12" d="M 127.5,234.5 C 127.5,235.5 127.5,236.5 127.5,237.5C 133.026,237.179 138.36,237.512 143.5,238.5C 134.833,238.5 126.167,238.5 117.5,238.5C 117.5,237.167 117.5,235.833 117.5,234.5C 120.833,234.5 124.167,234.5 127.5,234.5 Z"/></g>
<g><path style="opacity:1" fill="#ed5c13" d="M 196.5,233.5 C 204.888,233.227 213.221,233.56 221.5,234.5C 221.67,235.822 221.337,236.989 220.5,238C 215.981,238.175 211.647,238.675 207.5,239.5C 186.157,239.611 164.824,239.278 143.5,238.5C 138.36,237.512 133.026,237.179 127.5,237.5C 127.5,236.5 127.5,235.5 127.5,234.5C 143.5,234.5 159.5,234.5 175.5,234.5C 178.314,235.165 181.314,235.498 184.5,235.5C 188.722,235.718 192.722,235.051 196.5,233.5 Z"/></g>
<g><path style="opacity:1" fill="#fa3a02" d="M 199.5,234.5 C 221.866,234.661 221.699,235.994 199,238.5C 197.5,238.333 196,238.167 194.5,238C 195.955,236.374 197.622,235.208 199.5,234.5 Z"/></g>
<g><path style="opacity:1" fill="#fdb946" d="M 143.5,238.5 C 164.824,239.278 186.157,239.611 207.5,239.5C 195.864,241.254 183.864,242.254 171.5,242.5C 167.524,241.836 163.524,241.503 159.5,241.5C 158.737,240.732 157.737,240.232 156.5,240C 153.183,239.502 149.85,239.335 146.5,239.5C 145.209,239.737 144.209,239.404 143.5,238.5 Z"/></g>
<g><path style="opacity:1" fill="#f8f8f7" d="M 233.5,219.5 C 237.316,222.211 241.649,223.545 246.5,223.5C 246.973,224.906 247.973,225.573 249.5,225.5C 252.079,225.394 254.412,226.061 256.5,227.5C 263.622,230.253 270.956,232.587 278.5,234.5C 278.833,234.5 279.167,234.5 279.5,234.5C 283.085,236.806 287.085,238.139 291.5,238.5C 291.833,238.5 292.167,238.5 292.5,238.5C 292.842,239.338 293.508,239.672 294.5,239.5C 303.138,242.491 311.805,245.491 320.5,248.5C 322.436,251.208 322.936,254.208 322,257.5C 316.463,262.816 311.297,268.316 306.5,274C 312.956,281.457 319.789,288.624 327,295.5C 327.667,298.167 327.667,300.833 327,303.5C 319.5,311 312,318.5 304.5,326C 301.833,326.667 299.167,326.667 296.5,326C 289.652,318.985 282.652,312.152 275.5,305.5C 269.496,310.19 263.829,315.357 258.5,321C 254.726,322.183 251.559,321.349 249,318.5C 245.721,308.831 242.555,299.164 239.5,289.5C 239.5,288.833 239.5,288.167 239.5,287.5C 239.664,284.813 239.497,282.146 239,279.5C 236.81,277.217 236.143,274.551 237,271.5C 237.216,273.384 237.883,275.051 239,276.5C 239.289,269.52 239.122,262.52 238.5,255.5C 239.5,255.5 240.5,255.5 241.5,255.5C 245.158,263.671 247.658,272.338 249,281.5C 250.039,282.71 251.206,283.71 252.5,284.5C 254.298,289.892 256.298,295.225 258.5,300.5C 262.652,296.849 266.652,293.016 270.5,289C 273.5,287 276.5,287 279.5,289C 286.167,295.667 292.833,302.333 299.5,309C 303.797,306.892 307.464,303.725 310.5,299.5C 303.848,292.348 297.015,285.348 290,278.5C 288,275.5 288,272.5 290,269.5C 294.016,265.652 297.849,261.652 301.5,257.5C 296.696,255.232 291.696,253.565 286.5,252.5C 283.785,250.928 280.785,249.928 277.5,249.5C 270.36,246.875 263.027,244.542 255.5,242.5C 250.998,240.589 246.331,238.922 241.5,237.5C 240.032,236.221 239.365,234.554 239.5,232.5C 237.071,232.585 235.071,233.585 233.5,235.5C 232.309,239.986 230.809,244.319 229,248.5C 227.424,245.165 225.591,242.165 223.5,239.5C 222.833,237.833 222.167,236.167 221.5,234.5C 221.279,231.933 220.612,229.599 219.5,227.5C 219.5,226.167 219.5,224.833 219.5,223.5C 219.421,222.07 219.754,220.736 220.5,219.5C 224.848,218.29 229.181,218.29 233.5,219.5 Z"/></g>
<g><path style="opacity:1" fill="#ed7f27" d="M 241.5,237.5 C 246.331,238.922 250.998,240.589 255.5,242.5C 255.66,244.199 255.494,245.866 255,247.5C 253.677,250.309 252.177,252.975 250.5,255.5C 248.565,256.15 246.565,256.483 244.5,256.5C 245.315,255.163 246.482,254.163 248,253.5C 248.497,251.19 248.663,248.857 248.5,246.5C 245.215,246.79 242.215,246.123 239.5,244.5C 238.99,241.612 239.656,239.279 241.5,237.5 Z"/></g>
<g><path style="opacity:1" fill="#dc8b1e" d="M 221.5,234.5 C 222.167,236.167 222.833,237.833 223.5,239.5C 223.5,240.167 223.5,240.833 223.5,241.5C 223.5,242.5 223.5,243.5 223.5,244.5C 207.491,244.5 191.491,244.166 175.5,243.5C 168.8,243.83 162.134,243.497 155.5,242.5C 156.689,241.571 158.022,241.238 159.5,241.5C 163.524,241.503 167.524,241.836 171.5,242.5C 183.864,242.254 195.864,241.254 207.5,239.5C 211.647,238.675 215.981,238.175 220.5,238C 221.337,236.989 221.67,235.822 221.5,234.5 Z"/></g>
<g><path style="opacity:1" fill="#fcf7eb" d="M 241.5,237.5 C 239.656,239.279 238.99,241.612 239.5,244.5C 241.294,248.889 242.961,253.222 244.5,257.5C 246.287,264.208 248.287,270.874 250.5,277.5C 250.796,279.403 251.463,281.07 252.5,282.5C 252.5,283.167 252.5,283.833 252.5,284.5C 251.206,283.71 250.039,282.71 249,281.5C 247.658,272.338 245.158,263.671 241.5,255.5C 240.5,255.5 239.5,255.5 238.5,255.5C 239.122,262.52 239.289,269.52 239,276.5C 237.883,275.051 237.216,273.384 237,271.5C 236.143,274.551 236.81,277.217 239,279.5C 239.497,282.146 239.664,284.813 239.5,287.5C 239.167,287.5 238.833,287.5 238.5,287.5C 237.434,281.88 235.767,276.547 233.5,271.5C 233.167,271.5 232.833,271.5 232.5,271.5C 232.706,268.505 232.04,265.838 230.5,263.5C 230.425,260.794 230.092,258.127 229.5,255.5C 228.5,255.5 227.5,255.5 226.5,255.5C 226.956,250.404 225.956,245.738 223.5,241.5C 223.5,240.833 223.5,240.167 223.5,239.5C 225.591,242.165 227.424,245.165 229,248.5C 230.809,244.319 232.309,239.986 233.5,235.5C 235.071,233.585 237.071,232.585 239.5,232.5C 239.365,234.554 240.032,236.221 241.5,237.5 Z"/></g>
<g><path style="opacity:1" fill="#e24f20" d="M 255.5,242.5 C 263.027,244.542 270.36,246.875 277.5,249.5C 278.261,250.391 279.261,251.058 280.5,251.5C 281.614,252.723 281.781,254.056 281,255.5C 278.284,258.717 275.117,261.384 271.5,263.5C 274.369,260.468 277.036,257.301 279.5,254C 278.421,251.957 276.754,250.624 274.5,250C 270.554,248.936 266.554,248.103 262.5,247.5C 257.984,249.311 253.984,251.978 250.5,255.5C 252.177,252.975 253.677,250.309 255,247.5C 255.494,245.866 255.66,244.199 255.5,242.5 Z"/></g>
<g><path style="opacity:1" fill="#eada8f" d="M 111.5,239.5 C 113.924,239.192 116.257,239.526 118.5,240.5C 117.456,242.768 117.289,245.101 118,247.5C 121.025,251.024 123.858,254.691 126.5,258.5C 127.429,259.689 127.762,261.022 127.5,262.5C 127.167,262.5 126.833,262.5 126.5,262.5C 122.155,256.462 117.821,250.462 113.5,244.5C 113.107,242.716 112.441,241.05 111.5,239.5 Z"/></g>
<g><path style="opacity:1" fill="#23140a" d="M 113.5,244.5 C 117.821,250.462 122.155,256.462 126.5,262.5C 124.331,263.082 121.998,263.082 119.5,262.5C 121.174,269.519 118.507,272.519 111.5,271.5C 111.5,270.833 111.5,270.167 111.5,269.5C 111.5,269.167 111.5,268.833 111.5,268.5C 114.254,267.869 116.088,266.202 117,263.5C 117.667,260.833 117.667,258.167 117,255.5C 116.292,254.619 115.458,253.953 114.5,253.5C 111.23,251.84 107.897,251.506 104.5,252.5C 103.909,251.849 103.243,251.182 102.5,250.5C 106.796,249.672 111.129,249.172 115.5,249C 114.313,247.981 113.313,246.814 112.5,245.5C 112.624,244.893 112.957,244.56 113.5,244.5 Z"/></g>
<g><path style="opacity:1" fill="#fbb944" d="M 223.5,241.5 C 225.956,245.738 226.956,250.404 226.5,255.5C 227.5,255.5 228.5,255.5 229.5,255.5C 230.092,258.127 230.425,260.794 230.5,263.5C 228.146,263.162 225.813,262.662 223.5,262C 224.938,261.781 226.271,261.281 227.5,260.5C 222.208,259.505 216.875,259.172 211.5,259.5C 212.361,254.894 213.694,250.894 215.5,247.5C 212.833,247.5 210.167,247.5 207.5,247.5C 196.918,247.18 186.418,247.513 176,248.5C 175.517,247.552 175.351,246.552 175.5,245.5C 172.813,245.664 170.146,245.497 167.5,245C 170.365,244.817 173.031,244.317 175.5,243.5C 191.491,244.166 207.491,244.5 223.5,244.5C 223.5,243.5 223.5,242.5 223.5,241.5 Z"/></g>
<g><path style="opacity:1" fill="#f5aa3c" d="M 239.5,244.5 C 242.215,246.123 245.215,246.79 248.5,246.5C 248.663,248.857 248.497,251.19 248,253.5C 246.482,254.163 245.315,255.163 244.5,256.5C 244.5,256.833 244.5,257.167 244.5,257.5C 242.961,253.222 241.294,248.889 239.5,244.5 Z"/></g>
<g><path style="opacity:1" fill="#a67749" d="M 114.5,253.5 C 115.458,253.953 116.292,254.619 117,255.5C 117.667,258.167 117.667,260.833 117,263.5C 116.088,266.202 114.254,267.869 111.5,268.5C 114.821,264.865 116.155,260.531 115.5,255.5C 114.5,255.5 113.5,255.5 112.5,255.5C 113.167,254.833 113.833,254.167 114.5,253.5 Z"/></g>
<g><path style="opacity:1" fill="#ee420f" d="M 271.5,263.5 C 270.393,265.969 268.393,266.969 265.5,266.5C 265.5,268.167 265.5,269.833 265.5,271.5C 263.169,271.498 261.169,272.331 259.5,274C 259.833,274.333 260.167,274.667 260.5,275C 258.866,275.494 257.199,275.66 255.5,275.5C 255.5,276.5 255.5,277.5 255.5,278.5C 253.784,278.371 252.117,278.038 250.5,277.5C 248.287,270.874 246.287,264.208 244.5,257.5C 244.5,257.167 244.5,256.833 244.5,256.5C 246.565,256.483 248.565,256.15 250.5,255.5C 253.984,251.978 257.984,249.311 262.5,247.5C 266.554,248.103 270.554,248.936 274.5,250C 276.754,250.624 278.421,251.957 279.5,254C 277.036,257.301 274.369,260.468 271.5,263.5 Z"/></g>
<g><path style="opacity:1" fill="#eedaa0" d="M 114.5,253.5 C 113.833,254.167 113.167,254.833 112.5,255.5C 102.533,253.001 98.3663,256.667 100,266.5C 100.5,267.667 101.333,268.5 102.5,269C 101.906,269.464 101.239,269.631 100.5,269.5C 96.5506,264.646 96.5506,259.646 100.5,254.5C 101.766,253.638 103.099,252.971 104.5,252.5C 107.897,251.506 111.23,251.84 114.5,253.5 Z"/></g>
<g><path style="opacity:1" fill="#f4bf55" d="M 112.5,255.5 C 113.5,255.5 114.5,255.5 115.5,255.5C 116.155,260.531 114.821,264.865 111.5,268.5C 111.5,268.833 111.5,269.167 111.5,269.5C 108.209,267.818 105.543,268.485 103.5,271.5C 102.29,271.068 101.29,270.401 100.5,269.5C 101.239,269.631 101.906,269.464 102.5,269C 101.333,268.5 100.5,267.667 100,266.5C 98.3663,256.667 102.533,253.001 112.5,255.5 Z"/></g>
<g><path style="opacity:1" fill="#9f4931" d="M 277.5,249.5 C 280.785,249.928 283.785,250.928 286.5,252.5C 280.149,259.516 273.149,265.849 265.5,271.5C 265.5,269.833 265.5,268.167 265.5,266.5C 268.393,266.969 270.393,265.969 271.5,263.5C 275.117,261.384 278.284,258.717 281,255.5C 281.781,254.056 281.614,252.723 280.5,251.5C 279.261,251.058 278.261,250.391 277.5,249.5 Z"/></g>
<g><path style="opacity:1" fill="#fbd954" d="M 146.5,239.5 C 149.85,239.335 153.183,239.502 156.5,240C 157.737,240.232 158.737,240.732 159.5,241.5C 158.022,241.238 156.689,241.571 155.5,242.5C 162.134,243.497 168.8,243.83 175.5,243.5C 173.031,244.317 170.365,244.817 167.5,245C 170.146,245.497 172.813,245.664 175.5,245.5C 175.351,246.552 175.517,247.552 176,248.5C 186.418,247.513 196.918,247.18 207.5,247.5C 203.435,248.193 199.268,248.86 195,249.5C 194.439,248.978 193.772,248.645 193,248.5C 189.911,250.628 186.744,252.628 183.5,254.5C 184.689,255.429 186.022,255.762 187.5,255.5C 187.657,256.873 187.49,258.207 187,259.5C 185.415,260.376 184.415,261.709 184,263.5C 183.667,263.167 183.333,262.833 183,262.5C 180.536,263.651 178.036,264.651 175.5,265.5C 175.5,263.833 175.5,262.167 175.5,260.5C 174.167,260.5 172.833,260.5 171.5,260.5C 171.5,259.167 171.5,257.833 171.5,256.5C 170.5,256.5 169.5,256.5 168.5,256.5C 168.663,258.857 168.497,261.19 168,263.5C 165.281,262.556 162.448,262.223 159.5,262.5C 159.5,265.5 159.5,268.5 159.5,271.5C 157.801,271.34 156.134,271.506 154.5,272C 154.957,272.414 155.291,272.914 155.5,273.5C 164.645,273.98 173.645,275.314 182.5,277.5C 175.018,278.028 167.352,278.695 159.5,279.5C 159.5,278.167 159.5,276.833 159.5,275.5C 158.5,275.5 157.5,275.5 156.5,275.5C 156.227,277.451 156.893,278.951 158.5,280C 157.906,280.464 157.239,280.631 156.5,280.5C 155.042,276.88 152.375,274.38 148.5,273C 149.167,272.667 149.833,272.333 150.5,272C 149.62,270.644 149.286,269.144 149.5,267.5C 142.855,268.209 142.188,267.042 147.5,264C 146.167,263.333 144.833,262.667 143.5,262C 154.146,261.171 154.146,260.671 143.5,260.5C 143.5,256.833 143.5,253.167 143.5,249.5C 146.32,249.752 148.986,249.252 151.5,248C 150.062,247.781 148.729,247.281 147.5,246.5C 148.672,243.995 148.338,241.661 146.5,239.5 Z"/></g>
<g><path style="opacity:1" fill="#fbce51" d="M 207.5,247.5 C 210.167,247.5 212.833,247.5 215.5,247.5C 213.694,250.894 212.361,254.894 211.5,259.5C 210.167,259.5 208.833,259.5 207.5,259.5C 207.5,257.167 207.5,254.833 207.5,252.5C 203.992,248.928 199.992,248.594 195.5,251.5C 194.37,252.622 193.703,253.956 193.5,255.5C 186.313,259.964 185.646,265.297 191.5,271.5C 187.147,271.765 182.813,272.265 178.5,273C 188.149,274.095 197.816,274.929 207.5,275.5C 207.36,277.124 208.027,278.29 209.5,279C 206.623,280.127 203.623,280.794 200.5,281C 201.416,281.278 202.082,281.778 202.5,282.5C 201.167,282.5 199.833,282.5 198.5,282.5C 185.944,282.428 173.611,282.428 161.5,282.5C 160.833,282.5 160.167,282.5 159.5,282.5C 158.5,281.833 157.5,281.167 156.5,280.5C 157.239,280.631 157.906,280.464 158.5,280C 156.893,278.951 156.227,277.451 156.5,275.5C 157.5,275.5 158.5,275.5 159.5,275.5C 159.5,276.833 159.5,278.167 159.5,279.5C 167.352,278.695 175.018,278.028 182.5,277.5C 173.645,275.314 164.645,273.98 155.5,273.5C 155.291,272.914 154.957,272.414 154.5,272C 156.134,271.506 157.801,271.34 159.5,271.5C 159.5,268.5 159.5,265.5 159.5,262.5C 162.448,262.223 165.281,262.556 168,263.5C 168.497,261.19 168.663,258.857 168.5,256.5C 169.5,256.5 170.5,256.5 171.5,256.5C 171.5,257.833 171.5,259.167 171.5,260.5C 172.833,260.5 174.167,260.5 175.5,260.5C 175.5,262.167 175.5,263.833 175.5,265.5C 178.036,264.651 180.536,263.651 183,262.5C 183.333,262.833 183.667,263.167 184,263.5C 184.415,261.709 185.415,260.376 187,259.5C 187.49,258.207 187.657,256.873 187.5,255.5C 186.022,255.762 184.689,255.429 183.5,254.5C 186.744,252.628 189.911,250.628 193,248.5C 193.772,248.645 194.439,248.978 195,249.5C 199.268,248.86 203.435,248.193 207.5,247.5 Z"/></g>
<g><path style="opacity:1" fill="#faf0aa" d="M 207.5,252.5 C 204.167,252.5 200.833,252.5 197.5,252.5C 197.5,253.5 197.5,254.5 197.5,255.5C 196.167,255.5 194.833,255.5 193.5,255.5C 193.703,253.956 194.37,252.622 195.5,251.5C 199.992,248.594 203.992,248.928 207.5,252.5 Z"/></g>
<g><path style="opacity:1" fill="#fcfaf2" d="M 207.5,252.5 C 207.5,254.833 207.5,257.167 207.5,259.5C 207.608,261.514 206.942,263.18 205.5,264.5C 202.793,266.843 200.126,269.177 197.5,271.5C 195.5,271.5 193.5,271.5 191.5,271.5C 185.646,265.297 186.313,259.964 193.5,255.5C 194.833,255.5 196.167,255.5 197.5,255.5C 197.5,254.5 197.5,253.5 197.5,252.5C 200.833,252.5 204.167,252.5 207.5,252.5 Z"/></g>
<g><path style="opacity:1" fill="#ec8e27" d="M 207.5,259.5 C 208.833,259.5 210.167,259.5 211.5,259.5C 216.875,259.172 222.208,259.505 227.5,260.5C 226.271,261.281 224.938,261.781 223.5,262C 225.813,262.662 228.146,263.162 230.5,263.5C 232.04,265.838 232.706,268.505 232.5,271.5C 231.508,271.328 230.842,271.662 230.5,272.5C 229.209,272.737 228.209,272.404 227.5,271.5C 228.708,270.766 230.041,270.433 231.5,270.5C 231.5,269.5 231.5,268.5 231.5,267.5C 229.473,267.662 227.473,267.495 225.5,267C 226.5,266.667 227.5,266.333 228.5,266C 223.845,265.501 219.179,265.334 214.5,265.5C 211.43,265.632 208.43,265.299 205.5,264.5C 206.942,263.18 207.608,261.514 207.5,259.5 Z"/></g>
<g><path style="opacity:1" fill="#e7de9b" d="M 127.5,262.5 C 129.697,263.845 132.03,265.011 134.5,266C 137.889,270.532 142.223,273.865 147.5,276C 149.384,277.049 150.718,278.549 151.5,280.5C 145.554,277.523 139.888,274.023 134.5,270C 131.961,267.63 129.628,265.13 127.5,262.5 Z"/></g>
<g><path style="opacity:1" fill="#fcae3f" d="M 214.5,265.5 C 219.179,265.334 223.845,265.501 228.5,266C 227.5,266.333 226.5,266.667 225.5,267C 227.473,267.495 229.473,267.662 231.5,267.5C 231.5,268.5 231.5,269.5 231.5,270.5C 230.041,270.433 228.708,270.766 227.5,271.5C 226.167,271.5 224.833,271.5 223.5,271.5C 223.5,270.5 223.5,269.5 223.5,268.5C 220.813,268.664 218.146,268.497 215.5,268C 214.748,267.329 214.414,266.496 214.5,265.5 Z"/></g>
<g><path style="opacity:1" fill="#d3824c" d="M 111.5,269.5 C 111.5,270.167 111.5,270.833 111.5,271.5C 108.833,271.5 106.167,271.5 103.5,271.5C 105.543,268.485 108.209,267.818 111.5,269.5 Z"/></g>
<g><path style="opacity:1" fill="#f8c242" d="M 205.5,264.5 C 208.43,265.299 211.43,265.632 214.5,265.5C 214.414,266.496 214.748,267.329 215.5,268C 218.146,268.497 220.813,268.664 223.5,268.5C 223.5,269.5 223.5,270.5 223.5,271.5C 221.167,271.5 218.833,271.5 216.5,271.5C 210.167,271.5 203.833,271.5 197.5,271.5C 200.126,269.177 202.793,266.843 205.5,264.5 Z"/></g>
<g><path style="opacity:1" fill="#ebedce" d="M 31.5,257.5 C 37.5759,273.652 45.2426,288.985 54.5,303.5C 52.1667,303.5 49.8333,303.5 47.5,303.5C 47.5,300.833 47.5,298.167 47.5,295.5C 46.0222,295.762 44.6888,295.429 43.5,294.5C 42.9329,292.018 42.2663,289.684 41.5,287.5C 40.8092,284.303 39.1426,281.636 36.5,279.5C 35.52,276.914 35.1866,274.247 35.5,271.5C 34.1667,271.5 32.8333,271.5 31.5,271.5C 31.5,266.833 31.5,262.167 31.5,257.5 Z"/></g>
<g><path style="opacity:1" fill="#b35539" d="M 265.5,271.5 C 263.177,275.324 259.844,277.657 255.5,278.5C 255.5,277.5 255.5,276.5 255.5,275.5C 257.199,275.66 258.866,275.494 260.5,275C 260.167,274.667 259.833,274.333 259.5,274C 261.169,272.331 263.169,271.498 265.5,271.5 Z"/></g>
<g><path style="opacity:1" fill="#f5902a" d="M 191.5,271.5 C 193.5,271.5 195.5,271.5 197.5,271.5C 203.833,271.5 210.167,271.5 216.5,271.5C 218.62,273.495 221.12,275.162 224,276.5C 224.195,277.819 224.028,279.153 223.5,280.5C 223.5,280.833 223.5,281.167 223.5,281.5C 216.51,281.999 209.51,282.332 202.5,282.5C 202.082,281.778 201.416,281.278 200.5,281C 203.623,280.794 206.623,280.127 209.5,279C 208.027,278.29 207.36,277.124 207.5,275.5C 197.816,274.929 188.149,274.095 178.5,273C 182.813,272.265 187.147,271.765 191.5,271.5 Z"/></g>
<g><path style="opacity:1" fill="#ef6c17" d="M 216.5,271.5 C 218.833,271.5 221.167,271.5 223.5,271.5C 224.833,271.5 226.167,271.5 227.5,271.5C 228.209,272.404 229.209,272.737 230.5,272.5C 230.662,274.527 230.495,276.527 230,278.5C 228.887,279.711 227.72,279.711 226.5,278.5C 225.304,278.846 225.304,279.346 226.5,280C 225.552,280.483 224.552,280.649 223.5,280.5C 224.028,279.153 224.195,277.819 224,276.5C 221.12,275.162 218.62,273.495 216.5,271.5 Z"/></g>
<g><path style="opacity:1" fill="#bb654e" d="M 250.5,277.5 C 252.117,278.038 253.784,278.371 255.5,278.5C 253.771,279.236 252.771,280.57 252.5,282.5C 251.463,281.07 250.796,279.403 250.5,277.5 Z"/></g>
<g><path style="opacity:1" fill="#d35531" d="M 233.5,271.5 C 235.767,276.547 237.434,281.88 238.5,287.5C 238.167,287.5 237.833,287.5 237.5,287.5C 236.749,284.247 234.749,282.08 231.5,281C 233.344,278.196 234.011,275.03 233.5,271.5 Z"/></g>
<g><path style="opacity:1" fill="#ec671d" d="M 223.5,281.5 C 223.5,282.5 223.5,283.5 223.5,284.5C 217.965,284.865 212.632,285.865 207.5,287.5C 207.5,286.5 207.5,285.5 207.5,284.5C 204.15,284.665 200.817,284.498 197.5,284C 198.056,283.617 198.389,283.117 198.5,282.5C 199.833,282.5 201.167,282.5 202.5,282.5C 209.51,282.332 216.51,281.999 223.5,281.5 Z"/></g>
<g><path style="opacity:1" fill="#f0d48b" d="M 151.5,280.5 C 154.004,281.639 156.67,282.306 159.5,282.5C 160.167,282.5 160.833,282.5 161.5,282.5C 163.5,283.167 165.5,283.833 167.5,284.5C 167.443,285.609 167.11,286.609 166.5,287.5C 166.167,287.5 165.833,287.5 165.5,287.5C 160.247,286.207 155.581,283.874 151.5,280.5 Z"/></g>
<g><path style="opacity:1" fill="#f09f31" d="M 161.5,282.5 C 173.611,282.428 185.944,282.428 198.5,282.5C 198.389,283.117 198.056,283.617 197.5,284C 200.817,284.498 204.15,284.665 207.5,284.5C 207.5,285.5 207.5,286.5 207.5,287.5C 204.302,286.964 201.635,287.631 199.5,289.5C 193.491,289.666 187.491,289.499 181.5,289C 179.942,288.79 178.609,288.29 177.5,287.5C 180.988,287.101 181.154,286.434 178,285.5C 174.542,284.714 171.042,284.38 167.5,284.5C 165.5,283.833 163.5,283.167 161.5,282.5 Z"/></g>
<g><path style="opacity:1" fill="#e64411" d="M 232.5,271.5 C 232.833,271.5 233.167,271.5 233.5,271.5C 234.011,275.03 233.344,278.196 231.5,281C 234.749,282.08 236.749,284.247 237.5,287.5C 236.167,287.5 234.833,287.5 233.5,287.5C 231.737,286.666 230.07,287.166 228.5,289C 221.305,289.841 214.305,291.007 207.5,292.5C 204.15,292.665 200.817,292.498 197.5,292C 198.672,291.581 199.672,290.915 200.5,290C 200.272,289.601 199.938,289.435 199.5,289.5C 201.635,287.631 204.302,286.964 207.5,287.5C 212.632,285.865 217.965,284.865 223.5,284.5C 223.5,283.5 223.5,282.5 223.5,281.5C 223.5,281.167 223.5,280.833 223.5,280.5C 224.552,280.649 225.552,280.483 226.5,280C 225.304,279.346 225.304,278.846 226.5,278.5C 227.72,279.711 228.887,279.711 230,278.5C 230.495,276.527 230.662,274.527 230.5,272.5C 230.842,271.662 231.508,271.328 232.5,271.5 Z"/></g>
<g><path style="opacity:1" fill="#fbc84d" d="M 167.5,284.5 C 171.042,284.38 174.542,284.714 178,285.5C 181.154,286.434 180.988,287.101 177.5,287.5C 176.833,287.5 176.167,287.5 175.5,287.5C 172.5,287.5 169.5,287.5 166.5,287.5C 167.11,286.609 167.443,285.609 167.5,284.5 Z"/></g>
<g><path style="opacity:1" fill="#ba5335" d="M 233.5,287.5 C 232.167,288.167 231.167,289.167 230.5,290.5C 227.615,290.643 225.282,291.643 223.5,293.5C 212.67,294.5 202.003,294.5 191.5,293.5C 197.026,293.821 202.36,293.488 207.5,292.5C 214.305,291.007 221.305,289.841 228.5,289C 230.07,287.166 231.737,286.666 233.5,287.5 Z"/></g>
<g><path style="opacity:1" fill="#d56a29" d="M 175.5,287.5 C 176.167,287.5 176.833,287.5 177.5,287.5C 178.609,288.29 179.942,288.79 181.5,289C 187.491,289.499 193.491,289.666 199.5,289.5C 199.938,289.435 200.272,289.601 200.5,290C 199.672,290.915 198.672,291.581 197.5,292C 200.817,292.498 204.15,292.665 207.5,292.5C 202.36,293.488 197.026,293.821 191.5,293.5C 188.615,293.806 185.948,293.473 183.5,292.5C 181.162,290.96 178.495,290.294 175.5,290.5C 175.5,289.5 175.5,288.5 175.5,287.5 Z"/></g>
<g><path style="opacity:1" fill="#8a4d2f" d="M 233.5,287.5 C 234.833,287.5 236.167,287.5 237.5,287.5C 237.833,287.5 238.167,287.5 238.5,287.5C 238.833,287.5 239.167,287.5 239.5,287.5C 239.5,288.167 239.5,288.833 239.5,289.5C 238.85,289.196 238.183,288.863 237.5,288.5C 235.271,289.577 232.937,290.244 230.5,290.5C 231.167,289.167 232.167,288.167 233.5,287.5 Z"/></g>
<g><path style="opacity:1" fill="#d8a070" d="M 165.5,287.5 C 165.833,287.5 166.167,287.5 166.5,287.5C 169.5,287.5 172.5,287.5 175.5,287.5C 175.5,288.5 175.5,289.5 175.5,290.5C 178.495,290.294 181.162,290.96 183.5,292.5C 180.833,292.167 178.167,291.833 175.5,291.5C 172.011,290.342 168.678,289.009 165.5,287.5 Z"/></g>
<g><path style="opacity:1" fill="#2b0400" d="M 175.5,291.5 C 178.167,291.833 180.833,292.167 183.5,292.5C 185.948,293.473 188.615,293.806 191.5,293.5C 202.003,294.5 212.67,294.5 223.5,293.5C 209.719,296.639 195.719,297.139 181.5,295C 178.848,294.647 176.848,293.48 175.5,291.5 Z"/></g>
<g><path style="opacity:1" fill="#ecedc8" d="M 367.5,259.5 C 367.915,264.34 367.248,269.007 365.5,273.5C 365.68,274.554 366.013,275.554 366.5,276.5C 362.729,280.752 359.229,284.419 356,287.5C 355.503,289.81 355.337,292.143 355.5,294.5C 354.167,294.5 352.833,294.5 351.5,294.5C 351.5,297.5 351.5,300.5 351.5,303.5C 349.167,303.5 346.833,303.5 344.5,303.5C 353.735,289.698 361.402,275.031 367.5,259.5 Z"/></g>
<g><path style="opacity:1" fill="#dfddcd" d="M 167.5,303.5 C 168.158,304.398 168.824,305.398 169.5,306.5C 171.005,303.869 171.671,304.203 171.5,307.5C 176.532,307.332 176.699,308.332 172,310.5C 171.405,311.899 171.572,313.232 172.5,314.5C 172.333,314.833 172.167,315.167 172,315.5C 170.437,312.956 168.937,312.956 167.5,315.5C 166.355,314.224 166.355,312.891 167.5,311.5C 165.5,310.667 163.5,309.833 161.5,309C 165.898,309.592 167.898,307.759 167.5,303.5 Z"/></g>
<g><path style="opacity:1" fill="#c8c8c8" d="M 119.5,315.5 C 120.5,315.5 121.5,315.5 122.5,315.5C 122.884,317.665 122.217,319.332 120.5,320.5C 118.296,319.218 117.962,317.551 119.5,315.5 Z"/></g>
<g><path style="opacity:1" fill="#e8e8e8" d="M 270.5,313.5 C 272.216,314.574 273.216,316.241 273.5,318.5C 279.855,319.893 279.521,320.893 272.5,321.5C 272.114,329.398 271.114,329.398 269.5,321.5C 267.885,320.846 266.218,320.346 264.5,320C 269.114,320.197 271.114,318.031 270.5,313.5 Z"/></g>
<g><path style="opacity:1" fill="#efedcf" d="M 342.5,304.5 C 341.966,309.569 339.799,313.902 336,317.5C 335.51,318.793 335.343,320.127 335.5,321.5C 333.61,321.297 332.11,321.963 331,323.5C 329.001,325.493 327.501,327.827 326.5,330.5C 324.257,331.474 321.924,331.808 319.5,331.5C 327.878,323.058 335.545,314.058 342.5,304.5 Z"/></g>
<g><path style="opacity:1" fill="#f3f2c7" d="M 54.5,303.5 C 63.4948,315.022 73.4948,325.689 84.5,335.5C 85.4552,337.746 86.1218,340.079 86.5,342.5C 89.0878,342.543 91.2544,343.543 93,345.5C 93.3333,345.167 93.6667,344.833 94,344.5C 94.8786,346.979 96.3786,348.979 98.5,350.5C 99.944,349.019 100.611,349.352 100.5,351.5C 97.1501,351.665 93.8168,351.498 90.5,351C 87.8333,349 85.1667,347 82.5,345C 79.8144,342.454 78.8144,339.287 79.5,335.5C 78.1667,335.5 76.8333,335.5 75.5,335.5C 75.6495,334.448 75.4828,333.448 75,332.5C 74.6667,332.833 74.3333,333.167 74,333.5C 71.6212,330.465 68.6212,328.131 65,326.5C 63.7475,323.986 63.2475,321.32 63.5,318.5C 62.448,318.649 61.448,318.483 60.5,318C 56.4726,314.025 54.4726,309.191 54.5,303.5 Z"/></g>
<g><path style="opacity:1" fill="#d5d5d5" d="M 232.5,331.5 C 234.176,332.183 234.843,333.517 234.5,335.5C 233.325,335.719 232.325,335.386 231.5,334.5C 232.127,333.583 232.461,332.583 232.5,331.5 Z"/></g>
<g><path style="opacity:1" fill="#ececd0" d="M 319.5,331.5 C 319.66,333.199 319.494,334.866 319,336.5C 315.962,339.203 313.295,342.203 311,345.5C 310.667,344.833 310.333,344.167 310,343.5C 308.933,344.191 307.766,344.691 306.5,345C 304.551,347.267 302.218,348.934 299.5,350C 299.833,350.333 300.167,350.667 300.5,351C 298.833,351.333 297.167,351.667 295.5,352C 294.743,353.512 293.743,354.846 292.5,356C 288.879,357.138 285.212,357.972 281.5,358.5C 295.234,351.115 307.9,342.115 319.5,331.5 Z"/></g>
<g><path style="opacity:1" fill="#f7f5d0" d="M 84.5,335.5 C 97.037,346.865 111.037,356.031 126.5,363C 178.937,384.922 230.604,383.422 281.5,358.5C 280.016,363.258 276.683,365.592 271.5,365.5C 271.719,366.675 271.386,367.675 270.5,368.5C 267.362,370.144 264.362,371.977 261.5,374C 255.342,374.214 249.342,375.214 243.5,377C 242.549,377.718 242.383,378.551 243,379.5C 247.311,383.247 246.144,384.581 239.5,383.5C 239.5,382.5 239.5,381.5 239.5,380.5C 215.533,380.475 191.533,380.308 167.5,380C 164.921,378.504 162.255,377.171 159.5,376C 152.128,375.28 144.795,374.28 137.5,373C 134.574,372.313 133.241,370.48 133.5,367.5C 129.395,367.766 125.395,367.266 121.5,366C 119.912,363.404 117.912,361.071 115.5,359C 111.356,357.076 107.023,355.743 102.5,355C 101.915,353.698 101.249,352.531 100.5,351.5C 100.611,349.352 99.944,349.019 98.5,350.5C 96.3786,348.979 94.8786,346.979 94,344.5C 93.6667,344.833 93.3333,345.167 93,345.5C 91.2544,343.543 89.0878,342.543 86.5,342.5C 86.1218,340.079 85.4552,337.746 84.5,335.5 Z"/></g>
</svg>
